<svg width="278" height="114" viewBox="0 0 278 114" fill="none" xmlns="http://www.w3.org/2000/svg">
<g filter="url(#filter0_d_345_787)">
<rect x="15.6" y="16.3501" width="239.25" height="75" rx="11.1402" fill="white" fill-opacity="0.2" shape-rendering="crispEdges"/>
<rect x="16.1247" y="16.8748" width="238.201" height="73.9506" rx="10.6155" stroke="url(#paint0_linear_345_787)" stroke-opacity="0.2" stroke-width="1.04943" shape-rendering="crispEdges"/>
<rect x="30.9508" y="26.8501" width="21.75" height="21.75" rx="10.875" fill="#FFECEC"/>
<path d="M44.7901 34.7607L38.8611 40.6897" stroke="#F96464" stroke-width="1.5" stroke-linecap="round" stroke-linejoin="round"/>
<path d="M38.8611 34.7607L44.7901 40.6897" stroke="#F96464" stroke-width="1.5" stroke-linecap="round" stroke-linejoin="round"/>
<path d="M64.9128 39.224L69.0962 33.3103H70.5746L66.3912 39.224H64.9128ZM64.9128 40.1001V39.224L65.997 38.9502H70.487V40.1001H64.9128ZM65.1647 33.5841V32.4342H70.5746V33.3103L69.4794 33.5841H65.1647ZM71.6682 40.1001V34.8435H72.8729V40.1001H71.6682ZM72.2706 33.8798C72.0661 33.8798 71.8946 33.8104 71.7559 33.6717C71.6244 33.533 71.5587 33.3614 71.5587 33.157C71.5587 32.9526 71.6244 32.781 71.7559 32.6423C71.8946 32.5036 72.0661 32.4342 72.2706 32.4342C72.4823 32.4342 72.6539 32.5036 72.7853 32.6423C72.9167 32.781 72.9824 32.9526 72.9824 33.157C72.9824 33.3614 72.9167 33.533 72.7853 33.6717C72.6539 33.8104 72.4823 33.8798 72.2706 33.8798ZM77.8269 40.1001V37.0666C77.8269 36.7162 77.7138 36.4278 77.4875 36.2015C77.2684 35.9751 76.9837 35.862 76.6333 35.862C76.3996 35.862 76.1916 35.9131 76.009 36.0153C75.8265 36.1175 75.6842 36.2599 75.5819 36.4424C75.4797 36.6249 75.4286 36.833 75.4286 37.0666L74.9577 36.8038C74.9577 36.4022 75.0453 36.0481 75.2206 35.7415C75.3958 35.4276 75.6367 35.183 75.9433 35.0078C76.2573 34.8252 76.6077 34.734 76.9947 34.734C77.3889 34.734 77.7393 34.8362 78.046 35.0406C78.3526 35.2377 78.5935 35.4969 78.7688 35.8182C78.944 36.1321 79.0316 36.4606 79.0316 36.8038V40.1001H77.8269ZM74.224 40.1001V34.8435H75.4286V40.1001H74.224ZM82.676 40.2096C82.1576 40.2096 81.6867 40.0891 81.2632 39.8482C80.8471 39.6073 80.5186 39.2788 80.2776 38.8626C80.0367 38.4465 79.9162 37.9829 79.9162 37.4718C79.9162 36.9534 80.0367 36.4898 80.2776 36.081C80.5186 35.6648 80.8471 35.3363 81.2632 35.0954C81.6867 34.8545 82.1576 34.734 82.676 34.734C83.0848 34.734 83.4644 34.8143 83.8149 34.9749C84.1726 35.1282 84.4756 35.3509 84.7238 35.6429L83.9353 36.4424C83.782 36.2599 83.5959 36.1248 83.3768 36.0372C83.1651 35.9423 82.9315 35.8948 82.676 35.8948C82.3766 35.8948 82.1101 35.9642 81.8765 36.1029C81.6502 36.2343 81.4713 36.4168 81.3399 36.6505C81.2158 36.8841 81.1537 37.1579 81.1537 37.4718C81.1537 37.7784 81.2158 38.0522 81.3399 38.2931C81.4713 38.5268 81.6502 38.7129 81.8765 38.8517C82.1101 38.9831 82.3766 39.0488 82.676 39.0488C82.9315 39.0488 83.1651 39.005 83.3768 38.9174C83.5959 38.8225 83.782 38.6837 83.9353 38.5012L84.7238 39.3007C84.4756 39.5927 84.1726 39.819 83.8149 39.9796C83.4644 40.133 83.0848 40.2096 82.676 40.2096ZM87.949 40.1001V32.4342H88.8251L89.2084 33.8798V40.1001H87.949ZM93.2603 40.1001L88.6718 34.1098L88.8251 32.4342L93.4136 38.4246L93.2603 40.1001ZM93.2603 40.1001L92.877 38.7531V32.4342H94.1364V40.1001H93.2603ZM97.8357 40.2096C97.3612 40.2096 96.9304 40.0891 96.5435 39.8482C96.1638 39.6073 95.8608 39.2824 95.6345 38.8736C95.4155 38.4574 95.306 37.9938 95.306 37.4828C95.306 36.9644 95.4155 36.5008 95.6345 36.0919C95.8608 35.6758 96.1638 35.3473 96.5435 35.1063C96.9304 34.8581 97.3612 34.734 97.8357 34.734C98.2373 34.734 98.5914 34.8216 98.898 34.9968C99.2119 35.1647 99.4602 35.3984 99.6427 35.6977C99.8252 35.997 99.9165 36.3365 99.9165 36.7162V38.2274C99.9165 38.6071 99.8252 38.9466 99.6427 39.2459C99.4675 39.5452 99.2229 39.7825 98.9089 39.9577C98.595 40.1257 98.2373 40.2096 97.8357 40.2096ZM98.0328 39.0707C98.4782 39.0707 98.8359 38.921 99.1061 38.6217C99.3835 38.3223 99.5222 37.9391 99.5222 37.4718C99.5222 37.1579 99.4602 36.8804 99.336 36.6395C99.2119 36.3986 99.0367 36.2124 98.8104 36.081C98.5914 35.9423 98.3322 35.8729 98.0328 35.8729C97.7408 35.8729 97.4816 35.9423 97.2553 36.081C97.0363 36.2124 96.8611 36.3986 96.7296 36.6395C96.6055 36.8804 96.5435 37.1579 96.5435 37.4718C96.5435 37.7857 96.6055 38.0632 96.7296 38.3041C96.8611 38.545 97.0363 38.7348 97.2553 38.8736C97.4816 39.005 97.7408 39.0707 98.0328 39.0707ZM99.4456 40.1001V38.6874L99.6536 37.4061L99.4456 36.1357V34.8435H100.65V40.1001H99.4456ZM102.787 40.1001V32.6533H103.991V40.1001H102.787ZM101.527 35.9386V34.8435H105.251V35.9386H101.527ZM108.283 40.2096C107.838 40.2096 107.44 40.111 107.09 39.9139C106.746 39.7168 106.476 39.4467 106.279 39.1035C106.089 38.7531 105.994 38.3515 105.994 37.8989V34.8435H107.199V37.8441C107.199 38.0997 107.239 38.3187 107.32 38.5012C107.407 38.6764 107.531 38.8115 107.692 38.9064C107.86 39.0013 108.057 39.0488 108.283 39.0488C108.634 39.0488 108.9 38.9466 109.083 38.7421C109.273 38.5304 109.367 38.2311 109.367 37.8441V34.8435H110.572V37.8989C110.572 38.3588 110.474 38.764 110.276 39.1145C110.087 39.4576 109.82 39.7278 109.477 39.9249C109.134 40.1147 108.736 40.2096 108.283 40.2096ZM111.783 40.1001V34.8435H112.988V40.1001H111.783ZM112.988 37.1761L112.572 36.968C112.572 36.3037 112.718 35.7671 113.01 35.3582C113.309 34.9421 113.758 34.734 114.357 34.734C114.62 34.734 114.857 34.7814 115.069 34.8764C115.28 34.9713 115.478 35.1246 115.66 35.3363L114.872 36.1467C114.777 36.0445 114.671 35.9715 114.554 35.9277C114.437 35.8839 114.302 35.862 114.149 35.862C113.813 35.862 113.536 35.9678 113.317 36.1796C113.097 36.3913 112.988 36.7235 112.988 37.1761ZM118.525 40.2096C117.999 40.2096 117.524 40.0928 117.101 39.8592C116.685 39.6182 116.353 39.2897 116.104 38.8736C115.864 38.4574 115.743 37.9902 115.743 37.4718C115.743 36.9534 115.864 36.4898 116.104 36.081C116.345 35.6648 116.67 35.3363 117.079 35.0954C117.495 34.8545 117.955 34.734 118.459 34.734C118.948 34.734 119.379 34.8472 119.751 35.0735C120.131 35.2998 120.427 35.6101 120.638 36.0043C120.857 36.3986 120.967 36.8476 120.967 37.3513C120.967 37.4389 120.96 37.5302 120.945 37.6251C120.938 37.7127 120.923 37.8113 120.901 37.9208H116.586V36.9352H120.277L119.828 37.3294C119.813 37.0082 119.751 36.7381 119.642 36.519C119.532 36.3 119.375 36.1321 119.171 36.0153C118.974 35.8985 118.729 35.8401 118.437 35.8401C118.13 35.8401 117.864 35.9058 117.638 36.0372C117.411 36.1686 117.236 36.3548 117.112 36.5957C116.988 36.8293 116.926 37.1104 116.926 37.4389C116.926 37.7675 116.992 38.0559 117.123 38.3041C117.254 38.5523 117.441 38.7458 117.681 38.8845C117.922 39.0159 118.2 39.0816 118.514 39.0816C118.784 39.0816 119.032 39.0342 119.258 38.9393C119.492 38.8444 119.689 38.7056 119.85 38.5231L120.616 39.3007C120.361 39.6 120.051 39.8263 119.686 39.9796C119.32 40.133 118.934 40.2096 118.525 40.2096Z" fill="#272626"/>
<path d="M67.417 52.8235C67.0471 52.8235 66.7039 52.7578 66.3875 52.6264C66.076 52.4901 65.8035 52.3027 65.5699 52.0642C65.3362 51.8208 65.1561 51.541 65.0296 51.2246C64.903 50.9034 64.8398 50.5602 64.8398 50.1952C64.8398 49.8302 64.903 49.4895 65.0296 49.1731C65.1561 48.8518 65.3362 48.572 65.5699 48.3335C65.8035 48.095 66.076 47.9076 66.3875 47.7713C66.7039 47.635 67.0471 47.5669 67.417 47.5669C67.8307 47.5669 68.1884 47.635 68.4902 47.7713C68.792 47.9076 69.0596 48.0926 69.2933 48.3262L68.7238 48.8957C68.5729 48.7302 68.388 48.6012 68.1689 48.5087C67.9548 48.4162 67.7041 48.37 67.417 48.37C67.1639 48.37 66.9327 48.4138 66.7234 48.5014C66.5141 48.589 66.3316 48.7156 66.1758 48.881C66.0249 49.0417 65.9081 49.2339 65.8254 49.4578C65.7426 49.6817 65.7013 49.9275 65.7013 50.1952C65.7013 50.4629 65.7426 50.7087 65.8254 50.9326C65.9081 51.1565 66.0249 51.3512 66.1758 51.5166C66.3316 51.6773 66.5141 51.8014 66.7234 51.889C66.9327 51.9766 67.1639 52.0204 67.417 52.0204C67.7285 52.0204 67.9913 51.9742 68.2055 51.8817C68.4245 51.7843 68.6094 51.6529 68.7603 51.4874L69.3298 52.0569C69.0962 52.2954 68.8212 52.4828 68.5048 52.6191C68.1884 52.7554 67.8258 52.8235 67.417 52.8235ZM69.9695 52.7505V47.4939H70.7725V52.7505H69.9695ZM73.1338 52.8235C72.8174 52.8235 72.5303 52.7432 72.2723 52.5826C72.0192 52.422 71.8172 52.2054 71.6663 51.9328C71.5203 51.6554 71.4473 51.3463 71.4473 51.0056C71.4473 50.66 71.5203 50.3509 71.6663 50.0784C71.8172 49.801 72.0192 49.5819 72.2723 49.4213C72.5303 49.2558 72.8174 49.1731 73.1338 49.1731C73.4015 49.1731 73.6376 49.2315 73.842 49.3483C74.0513 49.4602 74.2168 49.616 74.3384 49.8156C74.4601 50.0151 74.521 50.2414 74.521 50.4945V51.502C74.521 51.7551 74.4601 51.9815 74.3384 52.181C74.2216 52.3806 74.0586 52.5388 73.8493 52.6556C73.64 52.7675 73.4015 52.8235 73.1338 52.8235ZM73.2652 52.0642C73.5621 52.0642 73.8006 51.9644 73.9807 51.7649C74.1656 51.5653 74.2581 51.3098 74.2581 50.9983C74.2581 50.789 74.2168 50.604 74.134 50.4434C74.0513 50.2828 73.9345 50.1587 73.7836 50.0711C73.6376 49.9786 73.4648 49.9324 73.2652 49.9324C73.0705 49.9324 72.8977 49.9786 72.7469 50.0711C72.6008 50.1587 72.484 50.2828 72.3964 50.4434C72.3137 50.604 72.2723 50.789 72.2723 50.9983C72.2723 51.2076 72.3137 51.3925 72.3964 51.5532C72.484 51.7138 72.6008 51.8403 72.7469 51.9328C72.8977 52.0204 73.0705 52.0642 73.2652 52.0642ZM74.207 52.7505V51.8087L74.3457 50.9545L74.207 50.1076V49.2461H75.0101V52.7505H74.207ZM75.9087 52.7505V49.2461H76.7118V52.7505H75.9087ZM76.3102 48.6036C76.1739 48.6036 76.0596 48.5574 75.9671 48.4649C75.8795 48.3724 75.8357 48.258 75.8357 48.1218C75.8357 47.9855 75.8795 47.8711 75.9671 47.7786C76.0596 47.6861 76.1739 47.6399 76.3102 47.6399C76.4514 47.6399 76.5658 47.6861 76.6534 47.7786C76.741 47.8711 76.7848 47.9855 76.7848 48.1218C76.7848 48.258 76.741 48.3724 76.6534 48.4649C76.5658 48.5574 76.4514 48.6036 76.3102 48.6036ZM77.6125 52.7505V49.2461H78.4156V52.7505H77.6125ZM79.9415 52.7505V50.6625C79.9415 50.4288 79.8685 50.2487 79.7225 50.1222C79.5764 49.9908 79.3963 49.9251 79.1822 49.9251C79.0362 49.9251 78.9048 49.9543 78.7879 50.0127C78.676 50.0711 78.586 50.1563 78.5178 50.2682C78.4497 50.3753 78.4156 50.5067 78.4156 50.6625L78.1017 50.4872C78.1017 50.2195 78.1601 49.9883 78.2769 49.7937C78.3937 49.599 78.5519 49.4481 78.7514 49.341C78.951 49.2291 79.1749 49.1731 79.4231 49.1731C79.6713 49.1731 79.8952 49.2266 80.0948 49.3337C80.2943 49.4408 80.4525 49.5917 80.5693 49.7864C80.6862 49.981 80.7446 50.2147 80.7446 50.4872V52.7505H79.9415ZM82.2704 52.7505V50.6625C82.2704 50.4288 82.1974 50.2487 82.0514 50.1222C81.9054 49.9908 81.7253 49.9251 81.5112 49.9251C81.37 49.9251 81.241 49.9543 81.1242 50.0127C81.0074 50.0711 80.9149 50.1563 80.8468 50.2682C80.7786 50.3753 80.7446 50.5067 80.7446 50.6625L80.2919 50.4872C80.3163 50.2195 80.3941 49.9883 80.5255 49.7937C80.657 49.599 80.8249 49.4481 81.0293 49.341C81.2386 49.2291 81.4673 49.1731 81.7156 49.1731C81.9687 49.1731 82.1974 49.2266 82.4019 49.3337C82.6063 49.4408 82.7693 49.5917 82.891 49.7864C83.0127 49.981 83.0735 50.2147 83.0735 50.4872V52.7505H82.2704ZM84.4412 52.8235C84.2854 52.8235 84.1564 52.7724 84.0542 52.6702C83.9569 52.5631 83.9082 52.4341 83.9082 52.2832C83.9082 52.1275 83.9569 51.9985 84.0542 51.8963C84.1564 51.7941 84.2854 51.743 84.4412 51.743C84.5969 51.743 84.7235 51.7941 84.8208 51.8963C84.923 51.9985 84.9741 52.1275 84.9741 52.2832C84.9741 52.4341 84.923 52.5631 84.8208 52.6702C84.7235 52.7724 84.5969 52.8235 84.4412 52.8235ZM84.4412 50.5675C84.2854 50.5675 84.1564 50.5164 84.0542 50.4142C83.9569 50.3071 83.9082 50.1782 83.9082 50.0273C83.9082 49.8715 83.9569 49.7425 84.0542 49.6403C84.1564 49.5381 84.2854 49.487 84.4412 49.487C84.5969 49.487 84.7235 49.5381 84.8208 49.6403C84.923 49.7425 84.9741 49.8715 84.9741 50.0273C84.9741 50.1782 84.923 50.3071 84.8208 50.4142C84.7235 50.5164 84.5969 50.5675 84.4412 50.5675ZM88.7025 52.8235C88.3472 52.8235 88.0308 52.7627 87.7534 52.641C87.476 52.5144 87.2424 52.3319 87.0525 52.0934L87.622 51.5239C87.7242 51.6797 87.8678 51.8038 88.0528 51.8963C88.2426 51.9888 88.4543 52.035 88.6879 52.035C88.9021 52.035 89.0895 51.9961 89.2501 51.9182C89.4107 51.8403 89.5373 51.7284 89.6297 51.5824C89.7222 51.4363 89.7684 51.2636 89.7684 51.064C89.7684 50.8547 89.7222 50.6819 89.6297 50.5456C89.5421 50.4045 89.4229 50.2998 89.272 50.2317C89.126 50.1587 88.9678 50.1222 88.7974 50.1222C88.6027 50.1222 88.4275 50.1441 88.2718 50.1879C88.1209 50.2317 87.9724 50.3096 87.8264 50.4215L87.8483 49.8959C87.9262 49.7937 88.0162 49.7109 88.1185 49.6476C88.2207 49.5795 88.3399 49.5284 88.4762 49.4943C88.6125 49.4602 88.7731 49.4432 88.9581 49.4432C89.3182 49.4432 89.62 49.5187 89.8634 49.6695C90.1116 49.8204 90.299 50.0224 90.4255 50.2755C90.5521 50.5237 90.6153 50.8012 90.6153 51.1078C90.6153 51.4388 90.5326 51.7332 90.3671 51.9912C90.2065 52.2492 89.9826 52.4536 89.6954 52.6045C89.4083 52.7505 89.0773 52.8235 88.7025 52.8235ZM87.8264 50.4215L87.3665 49.9616L87.5928 47.6399H88.3594L88.0966 50.0565L87.8264 50.4215ZM87.7388 48.3919L87.5928 47.6399H90.3306V48.3919H87.7388ZM93.2796 52.8235C92.8951 52.8235 92.5422 52.7164 92.221 52.5023C91.9046 52.2832 91.6515 51.9766 91.4617 51.5824C91.2718 51.1881 91.1769 50.7233 91.1769 50.1879C91.1769 49.6525 91.2694 49.1901 91.4544 48.8007C91.6442 48.4065 91.8973 48.1023 92.2137 47.8881C92.53 47.674 92.8805 47.5669 93.265 47.5669C93.6543 47.5669 94.0072 47.674 94.3236 47.8881C94.64 48.1023 94.8906 48.4065 95.0756 48.8007C95.2654 49.1901 95.3603 49.6549 95.3603 50.1952C95.3603 50.7306 95.2654 51.1954 95.0756 51.5897C94.8906 51.9839 94.64 52.2881 94.3236 52.5023C94.0121 52.7164 93.6641 52.8235 93.2796 52.8235ZM93.265 52.035C93.5181 52.035 93.7371 51.9669 93.922 51.8306C94.107 51.6943 94.2506 51.4899 94.3528 51.2173C94.4599 50.9448 94.5134 50.6016 94.5134 50.1879C94.5134 49.7791 94.4599 49.4383 94.3528 49.1658C94.2506 48.8932 94.1046 48.6912 93.9147 48.5598C93.7298 48.4235 93.5132 48.3554 93.265 48.3554C93.0167 48.3554 92.7977 48.4235 92.6079 48.5598C92.4229 48.6912 92.2794 48.8932 92.1771 49.1658C92.0749 49.4335 92.0238 49.7742 92.0238 50.1879C92.0238 50.6016 92.0749 50.9448 92.1771 51.2173C92.2794 51.4899 92.4229 51.6943 92.6079 51.8306C92.7977 51.9669 93.0167 52.035 93.265 52.035ZM98.671 53.6193C98.413 53.3905 98.1892 53.1107 97.9993 52.7797C97.8144 52.4487 97.6708 52.0861 97.5686 51.6919C97.4664 51.2976 97.4153 50.8888 97.4153 50.4653C97.4153 50.0419 97.4664 49.633 97.5686 49.2388C97.6708 48.8445 97.8144 48.4819 97.9993 48.151C98.1892 47.82 98.413 47.5401 98.671 47.3114L99.131 47.7202C98.8097 48.0171 98.5591 48.4016 98.379 48.8737C98.2038 49.341 98.1161 49.8715 98.1161 50.4653C98.1161 51.0543 98.2038 51.5848 98.379 52.0569C98.5591 52.529 98.8097 52.9135 99.131 53.2104L98.671 53.6193ZM99.7503 52.7505V49.2461H100.553V52.7505H99.7503ZM102.079 52.7505V50.6625C102.079 50.4288 102.006 50.2487 101.86 50.1222C101.714 49.9908 101.534 49.9251 101.32 49.9251C101.174 49.9251 101.043 49.9543 100.926 50.0127C100.814 50.0711 100.724 50.1563 100.656 50.2682C100.587 50.3753 100.553 50.5067 100.553 50.6625L100.239 50.4872C100.239 50.2195 100.298 49.9883 100.415 49.7937C100.531 49.599 100.69 49.4481 100.889 49.341C101.089 49.2291 101.313 49.1731 101.561 49.1731C101.809 49.1731 102.033 49.2266 102.233 49.3337C102.432 49.4408 102.59 49.5917 102.707 49.7864C102.824 49.981 102.882 50.2147 102.882 50.4872V52.7505H102.079ZM104.408 52.7505V50.6625C104.408 50.4288 104.335 50.2487 104.189 50.1222C104.043 49.9908 103.863 49.9251 103.649 49.9251C103.508 49.9251 103.379 49.9543 103.262 50.0127C103.145 50.0711 103.053 50.1563 102.985 50.2682C102.916 50.3753 102.882 50.5067 102.882 50.6625L102.43 50.4872C102.454 50.2195 102.532 49.9883 102.663 49.7937C102.795 49.599 102.963 49.4481 103.167 49.341C103.376 49.2291 103.605 49.1731 103.853 49.1731C104.106 49.1731 104.335 49.2266 104.54 49.3337C104.744 49.4408 104.907 49.5917 105.029 49.7864C105.15 49.981 105.211 50.2147 105.211 50.4872V52.7505H104.408ZM107.499 54.2837C107.129 54.2837 106.805 54.2155 106.528 54.0792C106.25 53.9478 106.027 53.7604 105.856 53.5171L106.382 52.9914C106.523 53.1666 106.684 53.2981 106.864 53.3857C107.044 53.4733 107.26 53.5171 107.513 53.5171C107.83 53.5171 108.08 53.4343 108.265 53.2688C108.45 53.1082 108.543 52.8868 108.543 52.6045V51.743L108.682 50.9691L108.543 50.1879V49.2461H109.346V52.6045C109.346 52.9403 109.268 53.2323 109.112 53.4806C108.957 53.7337 108.74 53.9308 108.463 54.0719C108.185 54.2131 107.864 54.2837 107.499 54.2837ZM107.462 52.6775C107.151 52.6775 106.869 52.602 106.615 52.4512C106.367 52.2954 106.17 52.0837 106.024 51.816C105.883 51.5483 105.812 51.249 105.812 50.918C105.812 50.587 105.883 50.2901 106.024 50.0273C106.17 49.7644 106.367 49.5576 106.615 49.4067C106.869 49.251 107.151 49.1731 107.462 49.1731C107.74 49.1731 107.983 49.2291 108.192 49.341C108.402 49.4529 108.565 49.6087 108.682 49.8083C108.798 50.0029 108.857 50.2317 108.857 50.4945V51.356C108.857 51.614 108.796 51.8428 108.674 52.0423C108.557 52.2419 108.394 52.3976 108.185 52.5096C107.976 52.6215 107.735 52.6775 107.462 52.6775ZM107.623 51.9182C107.818 51.9182 107.988 51.8768 108.134 51.7941C108.28 51.7113 108.392 51.597 108.47 51.4509C108.553 51.3001 108.594 51.1248 108.594 50.9253C108.594 50.7257 108.553 50.5529 108.47 50.4069C108.392 50.256 108.28 50.1392 108.134 50.0565C107.988 49.9737 107.818 49.9324 107.623 49.9324C107.428 49.9324 107.255 49.9737 107.105 50.0565C106.959 50.1392 106.844 50.256 106.761 50.4069C106.679 50.5529 106.637 50.7257 106.637 50.9253C106.637 51.12 106.679 51.2928 106.761 51.4436C106.844 51.5945 106.959 51.7113 107.105 51.7941C107.255 51.8768 107.428 51.9182 107.623 51.9182ZM109.858 53.0425L111.903 47.3479H112.655L110.61 53.0425H109.858ZM114.008 52.8235C113.813 52.8235 113.626 52.7992 113.446 52.7505C113.266 52.6969 113.1 52.6239 112.949 52.5315C112.799 52.4341 112.667 52.3173 112.555 52.181L113.066 51.67C113.188 51.8111 113.327 51.9182 113.482 51.9912C113.643 52.0593 113.823 52.0934 114.023 52.0934C114.203 52.0934 114.339 52.0666 114.431 52.0131C114.524 51.9596 114.57 51.8817 114.57 51.7795C114.57 51.6724 114.526 51.5897 114.439 51.5312C114.351 51.4728 114.237 51.4242 114.096 51.3852C113.959 51.3414 113.813 51.2976 113.658 51.2538C113.507 51.21 113.361 51.1516 113.22 51.0786C113.083 51.0007 112.971 50.8961 112.884 50.7647C112.796 50.6332 112.752 50.4629 112.752 50.2536C112.752 50.0297 112.803 49.8375 112.906 49.6768C113.013 49.5162 113.161 49.3921 113.351 49.3045C113.546 49.2169 113.777 49.1731 114.045 49.1731C114.327 49.1731 114.575 49.2242 114.789 49.3264C115.008 49.4237 115.191 49.5722 115.337 49.7718L114.826 50.2828C114.724 50.1563 114.607 50.0613 114.475 49.9981C114.344 49.9348 114.193 49.9032 114.023 49.9032C113.862 49.9032 113.738 49.9275 113.65 49.9762C113.563 50.0248 113.519 50.0954 113.519 50.1879C113.519 50.2852 113.563 50.3607 113.65 50.4142C113.738 50.4678 113.85 50.514 113.986 50.5529C114.127 50.5919 114.273 50.6357 114.424 50.6844C114.58 50.7282 114.726 50.7914 114.862 50.8742C115.003 50.9521 115.118 51.0591 115.205 51.1954C115.293 51.3268 115.337 51.4996 115.337 51.7138C115.337 52.0545 115.218 52.3246 114.979 52.5242C114.741 52.7237 114.417 52.8235 114.008 52.8235ZM117.627 52.8235C117.277 52.8235 116.96 52.7456 116.678 52.5899C116.4 52.4293 116.179 52.2102 116.013 51.9328C115.853 51.6554 115.773 51.3439 115.773 50.9983C115.773 50.6527 115.853 50.3436 116.013 50.0711C116.174 49.7937 116.391 49.5746 116.663 49.414C116.941 49.2534 117.247 49.1731 117.583 49.1731C117.909 49.1731 118.196 49.2485 118.445 49.3994C118.698 49.5503 118.895 49.7571 119.036 50.02C119.182 50.2828 119.255 50.5821 119.255 50.918C119.255 50.9764 119.25 51.0372 119.24 51.1005C119.236 51.1589 119.226 51.2246 119.211 51.2976H116.335V50.6405H118.795L118.496 50.9034C118.486 50.6892 118.445 50.5091 118.372 50.3631C118.299 50.2171 118.194 50.1052 118.058 50.0273C117.926 49.9494 117.763 49.9105 117.569 49.9105C117.364 49.9105 117.186 49.9543 117.036 50.0419C116.885 50.1295 116.768 50.2536 116.685 50.4142C116.602 50.57 116.561 50.7574 116.561 50.9764C116.561 51.1954 116.605 51.3877 116.692 51.5532C116.78 51.7186 116.904 51.8476 117.065 51.9401C117.225 52.0277 117.41 52.0715 117.62 52.0715C117.8 52.0715 117.965 52.0399 118.116 51.9766C118.272 51.9133 118.403 51.8208 118.51 51.6992L119.021 52.2175C118.851 52.4171 118.644 52.568 118.401 52.6702C118.158 52.7724 117.9 52.8235 117.627 52.8235ZM119.899 52.7505V49.2461H120.702V52.7505H119.899ZM120.702 50.8012L120.425 50.6625C120.425 50.2195 120.522 49.8618 120.717 49.5892C120.916 49.3118 121.215 49.1731 121.615 49.1731C121.79 49.1731 121.948 49.2047 122.089 49.268C122.23 49.3313 122.362 49.4335 122.483 49.5746L121.958 50.1149C121.894 50.0467 121.824 49.9981 121.746 49.9689C121.668 49.9397 121.578 49.9251 121.476 49.9251C121.252 49.9251 121.067 49.9956 120.921 50.1368C120.775 50.2779 120.702 50.4994 120.702 50.8012ZM124.005 52.7505L122.406 49.2461H123.297L124.516 52.1007H123.99L125.217 49.2461H126.071L124.472 52.7505H124.005ZM126.551 52.7505V49.2461H127.354V52.7505H126.551ZM126.953 48.6036C126.816 48.6036 126.702 48.5574 126.609 48.4649C126.522 48.3724 126.478 48.258 126.478 48.1218C126.478 47.9855 126.522 47.8711 126.609 47.7786C126.702 47.6861 126.816 47.6399 126.953 47.6399C127.094 47.6399 127.208 47.6861 127.296 47.7786C127.383 47.8711 127.427 47.9855 127.427 48.1218C127.427 48.258 127.383 48.3724 127.296 48.4649C127.208 48.5574 127.094 48.6036 126.953 48.6036ZM130.657 52.7505V50.7282C130.657 50.4945 130.581 50.3023 130.431 50.1514C130.285 50.0005 130.095 49.9251 129.861 49.9251C129.705 49.9251 129.567 49.9591 129.445 50.0273C129.323 50.0954 129.228 50.1903 129.16 50.312C129.092 50.4337 129.058 50.5724 129.058 50.7282L128.744 50.5529C128.744 50.2852 128.802 50.0492 128.919 49.8448C129.036 49.6355 129.197 49.4724 129.401 49.3556C129.61 49.2339 129.844 49.1731 130.102 49.1731C130.365 49.1731 130.598 49.2412 130.803 49.3775C131.007 49.5089 131.168 49.6817 131.285 49.8959C131.402 50.1052 131.46 50.3242 131.46 50.5529V52.7505H130.657ZM128.255 52.7505V49.2461H129.058V52.7505H128.255ZM133.736 54.2837C133.366 54.2837 133.043 54.2155 132.765 54.0792C132.488 53.9478 132.264 53.7604 132.094 53.5171L132.619 52.9914C132.76 53.1666 132.921 53.2981 133.101 53.3857C133.281 53.4733 133.498 53.5171 133.751 53.5171C134.067 53.5171 134.318 53.4343 134.503 53.2688C134.688 53.1082 134.78 52.8868 134.78 52.6045V51.743L134.919 50.9691L134.78 50.1879V49.2461H135.583V52.6045C135.583 52.9403 135.505 53.2323 135.35 53.4806C135.194 53.7337 134.977 53.9308 134.7 54.0719C134.422 54.2131 134.101 54.2837 133.736 54.2837ZM133.7 52.6775C133.388 52.6775 133.106 52.602 132.853 52.4512C132.605 52.2954 132.407 52.0837 132.261 51.816C132.12 51.5483 132.05 51.249 132.05 50.918C132.05 50.587 132.12 50.2901 132.261 50.0273C132.407 49.7644 132.605 49.5576 132.853 49.4067C133.106 49.251 133.388 49.1731 133.7 49.1731C133.977 49.1731 134.22 49.2291 134.43 49.341C134.639 49.4529 134.802 49.6087 134.919 49.8083C135.036 50.0029 135.094 50.2317 135.094 50.4945V51.356C135.094 51.614 135.033 51.8428 134.912 52.0423C134.795 52.2419 134.632 52.3976 134.422 52.5096C134.213 52.6215 133.972 52.6775 133.7 52.6775ZM133.86 51.9182C134.055 51.9182 134.225 51.8768 134.371 51.7941C134.517 51.7113 134.629 51.597 134.707 51.4509C134.79 51.3001 134.831 51.1248 134.831 50.9253C134.831 50.7257 134.79 50.5529 134.707 50.4069C134.629 50.256 134.517 50.1392 134.371 50.0565C134.225 49.9737 134.055 49.9324 133.86 49.9324C133.666 49.9324 133.493 49.9737 133.342 50.0565C133.196 50.1392 133.082 50.256 132.999 50.4069C132.916 50.5529 132.875 50.7257 132.875 50.9253C132.875 51.12 132.916 51.2928 132.999 51.4436C133.082 51.5945 133.196 51.7113 133.342 51.7941C133.493 51.8768 133.666 51.9182 133.86 51.9182ZM136.665 53.6193L136.205 53.2104C136.527 52.9135 136.775 52.529 136.95 52.0569C137.13 51.5848 137.22 51.0543 137.22 50.4653C137.22 49.8715 137.13 49.341 136.95 48.8737C136.775 48.4016 136.527 48.0171 136.205 47.7202L136.665 47.3114C136.923 47.5401 137.145 47.82 137.33 48.151C137.519 48.4819 137.665 48.8445 137.768 49.2388C137.87 49.633 137.921 50.0419 137.921 50.4653C137.921 50.8888 137.87 51.2976 137.768 51.6919C137.665 52.0861 137.519 52.4487 137.33 52.7797C137.145 53.1107 136.923 53.3905 136.665 53.6193Z" fill="#838383"/>
<rect x="30.9516" y="26.8501" width="21.75" height="21.75" rx="10.875" fill="#FFECEC"/>
<path d="M44.7908 34.7607L38.8618 40.6897" stroke="#F96464" stroke-width="1.5" stroke-linecap="round" stroke-linejoin="round"/>
<path d="M38.8618 34.7607L44.7908 40.6897" stroke="#F96464" stroke-width="1.5" stroke-linecap="round" stroke-linejoin="round"/>
<path d="M67.1316 68.3495C66.5987 68.3495 66.0986 68.2582 65.6313 68.0757C65.1713 67.8859 64.7881 67.6157 64.4814 67.2653L65.5984 66.1592C65.7372 66.3636 65.9379 66.5316 66.2008 66.663C66.4709 66.7871 66.7629 66.8491 67.0769 66.8491C67.3543 66.8491 67.5952 66.8017 67.7996 66.7068C68.0041 66.6046 68.1647 66.4622 68.2815 66.2797C68.3983 66.0899 68.4567 65.8708 68.4567 65.6226C68.4567 65.3671 68.3983 65.1481 68.2815 64.9655C68.1647 64.783 68.0004 64.6443 67.7887 64.5494C67.5843 64.4472 67.3506 64.3961 67.0878 64.3961C66.825 64.3961 66.5841 64.4326 66.365 64.5056C66.146 64.5713 65.9452 64.6735 65.7627 64.8122L65.9051 63.7171C66.073 63.5857 66.2336 63.4798 66.3869 63.3995C66.5403 63.3119 66.7082 63.2462 66.8907 63.2024C67.0732 63.1586 67.2886 63.1367 67.5368 63.1367C68.1063 63.1367 68.5845 63.2535 68.9714 63.4871C69.3657 63.7207 69.6614 64.031 69.8585 64.418C70.0629 64.8049 70.1651 65.232 70.1651 65.6993C70.1651 66.2103 70.0374 66.6666 69.7818 67.0682C69.5336 67.4697 69.1832 67.7837 68.7305 68.01C68.2779 68.2363 67.7449 68.3495 67.1316 68.3495ZM65.7627 64.8122L65.018 64.1223L65.3904 60.4974H66.9455L66.5403 64.0894L65.7627 64.8122ZM65.6204 61.9539L65.3904 60.4974H69.738V61.9539H65.6204ZM71.9282 68.3495C71.6434 68.3495 71.4062 68.2509 71.2164 68.0538C71.0265 67.8567 70.9316 67.6194 70.9316 67.342C70.9316 67.0499 71.0265 66.809 71.2164 66.6192C71.4062 66.422 71.6434 66.3235 71.9282 66.3235C72.2202 66.3235 72.4575 66.422 72.64 66.6192C72.8298 66.809 72.9247 67.0499 72.9247 67.342C72.9247 67.6194 72.8298 67.8567 72.64 68.0538C72.4575 68.2509 72.2202 68.3495 71.9282 68.3495ZM76.5192 68.3495C75.979 68.3495 75.4898 68.229 75.0518 67.9881C74.621 67.7471 74.2779 67.4259 74.0223 67.0244C73.7741 66.6155 73.65 66.1592 73.65 65.6555C73.65 64.9984 73.88 64.334 74.3399 63.6623L76.5192 60.4974H78.4576L76.0374 63.8704L75.3913 63.9252C75.4935 63.7499 75.5993 63.6003 75.7088 63.4762C75.8257 63.3447 75.9717 63.2462 76.1469 63.1805C76.3221 63.1075 76.5448 63.071 76.8149 63.071C77.2968 63.071 77.7275 63.1841 78.1072 63.4105C78.4941 63.6295 78.8044 63.9325 79.038 64.3194C79.2716 64.6991 79.3885 65.1371 79.3885 65.6336C79.3885 66.1373 79.2607 66.5973 79.0052 67.0134C78.7496 67.4223 78.4065 67.7471 77.9757 67.9881C77.545 68.229 77.0595 68.3495 76.5192 68.3495ZM76.5192 66.8491C76.7456 66.8491 76.95 66.7944 77.1325 66.6849C77.315 66.5754 77.4574 66.4257 77.5596 66.2359C77.6618 66.0461 77.7129 65.8343 77.7129 65.6007C77.7129 65.3598 77.6618 65.1481 77.5596 64.9655C77.4574 64.7757 77.315 64.6297 77.1325 64.5275C76.95 64.418 76.7456 64.3632 76.5192 64.3632C76.2856 64.3632 76.0775 64.418 75.895 64.5275C75.7198 64.6297 75.5811 64.7757 75.4789 64.9655C75.3767 65.1481 75.3255 65.3598 75.3255 65.6007C75.3255 65.8343 75.3767 66.0461 75.4789 66.2359C75.5811 66.4257 75.7198 66.5754 75.895 66.6849C76.0775 66.7944 76.2856 66.8491 76.5192 66.8491ZM82.7312 68.3495C82.1764 68.3495 81.6909 68.2509 81.2747 68.0538C80.8659 67.8567 80.5446 67.5865 80.311 67.2434C80.0847 66.9003 79.9715 66.5097 79.9715 66.0716C79.9715 65.7066 80.0409 65.378 80.1796 65.086C80.3256 64.794 80.5264 64.5494 80.7819 64.3523C81.0447 64.1551 81.3477 64.0201 81.6909 63.9471L81.658 64.2975C81.366 64.2318 81.1178 64.1113 80.9133 63.9361C80.7089 63.7536 80.5519 63.5346 80.4424 63.279C80.3329 63.0235 80.2782 62.757 80.2782 62.4796C80.2782 62.0708 80.3804 61.7094 80.5848 61.3954C80.7965 61.0742 81.0886 60.8223 81.4609 60.6398C81.8332 60.4573 82.2567 60.366 82.7312 60.366C83.2131 60.366 83.6365 60.4573 84.0016 60.6398C84.3739 60.8223 84.6623 61.0742 84.8667 61.3954C85.0785 61.7094 85.1843 62.0708 85.1843 62.4796C85.1843 62.757 85.1296 63.0235 85.0201 63.279C84.9178 63.5346 84.7645 63.7536 84.5601 63.9361C84.3557 64.1113 84.1074 64.2318 83.8154 64.2975L83.7716 63.9471C84.122 64.0201 84.425 64.1551 84.6806 64.3523C84.9434 64.5494 85.1442 64.794 85.2829 65.086C85.4216 65.378 85.491 65.7066 85.491 66.0716C85.491 66.5097 85.3778 66.9003 85.1515 67.2434C84.9251 67.5865 84.6039 67.8567 84.1878 68.0538C83.7789 68.2509 83.2934 68.3495 82.7312 68.3495ZM82.7312 66.882C82.9503 66.882 83.1437 66.8382 83.3117 66.7506C83.4796 66.6557 83.611 66.5279 83.7059 66.3673C83.8081 66.2067 83.8592 66.0278 83.8592 65.8307C83.8592 65.6263 83.8081 65.4474 83.7059 65.2941C83.611 65.1335 83.4796 65.0093 83.3117 64.9217C83.1437 64.8268 82.9503 64.7794 82.7312 64.7794C82.5122 64.7794 82.3187 64.8268 82.1508 64.9217C81.9829 65.0093 81.8515 65.1335 81.7566 65.2941C81.6617 65.4474 81.6142 65.6263 81.6142 65.8307C81.6142 66.0278 81.6617 66.2067 81.7566 66.3673C81.8515 66.5279 81.9829 66.6557 82.1508 66.7506C82.3187 66.8382 82.5122 66.882 82.7312 66.882ZM82.7312 63.5309C82.9868 63.5309 83.1948 63.4506 83.3555 63.29C83.5234 63.1221 83.6073 62.914 83.6073 62.6658C83.6073 62.4102 83.5234 62.2022 83.3555 62.0416C83.1948 61.8736 82.9868 61.7897 82.7312 61.7897C82.483 61.7897 82.2749 61.87 82.107 62.0306C81.9391 62.1912 81.8551 62.3993 81.8551 62.6548C81.8551 62.903 81.9391 63.1111 82.107 63.279C82.2749 63.447 82.483 63.5309 82.7312 63.5309ZM86.0333 65.5459L88.574 60.4974H90.4466L87.8512 65.5459H86.0333ZM86.0333 66.5097V65.5459L86.6028 65.0531H92.2317V66.5097H86.0333ZM89.6801 68.229V63.4433H91.3666V68.229H89.6801Z" fill="#F96464"/>
<path d="M64.7954 77.229V73.7246H65.5984V77.229H64.7954ZM67.1243 77.229V75.141C67.1243 74.9073 67.0513 74.7273 66.9053 74.6007C66.7593 74.4693 66.5792 74.4036 66.365 74.4036C66.219 74.4036 66.0876 74.4328 65.9708 74.4912C65.8588 74.5496 65.7688 74.6348 65.7007 74.7467C65.6325 74.8538 65.5984 74.9852 65.5984 75.141L65.2845 74.9657C65.2845 74.6981 65.3429 74.4669 65.4597 74.2722C65.5765 74.0775 65.7347 73.9266 65.9343 73.8195C66.1338 73.7076 66.3577 73.6516 66.606 73.6516C66.8542 73.6516 67.0781 73.7051 67.2776 73.8122C67.4772 73.9193 67.6354 74.0702 67.7522 74.2649C67.869 74.4596 67.9274 74.6932 67.9274 74.9657V77.229H67.1243ZM69.4533 77.229V75.141C69.4533 74.9073 69.3803 74.7273 69.2343 74.6007C69.0882 74.4693 68.9082 74.4036 68.694 74.4036C68.5528 74.4036 68.4239 74.4328 68.3071 74.4912C68.1902 74.5496 68.0978 74.6348 68.0296 74.7467C67.9615 74.8538 67.9274 74.9852 67.9274 75.141L67.4748 74.9657C67.4991 74.6981 67.577 74.4669 67.7084 74.2722C67.8398 74.0775 68.0077 73.9266 68.2121 73.8195C68.4214 73.7076 68.6502 73.6516 68.8984 73.6516C69.1515 73.6516 69.3803 73.7051 69.5847 73.8122C69.7891 73.9193 69.9522 74.0702 70.0739 74.2649C70.1955 74.4596 70.2564 74.6932 70.2564 74.9657V77.229H69.4533ZM72.6972 77.302C72.3517 77.302 72.0377 77.2217 71.7554 77.0611C71.478 76.9005 71.259 76.6814 71.0984 76.404C70.9377 76.1266 70.8574 75.8175 70.8574 75.4768C70.8574 75.1312 70.9377 74.8222 71.0984 74.5496C71.259 74.2722 71.478 74.0531 71.7554 73.8925C72.0377 73.7319 72.3517 73.6516 72.6972 73.6516C72.9698 73.6516 73.2229 73.7051 73.4565 73.8122C73.695 73.9144 73.897 74.0629 74.0625 74.2576L73.5368 74.7905C73.4346 74.6688 73.3105 74.5788 73.1645 74.5204C73.0234 74.4571 72.8676 74.4255 72.6972 74.4255C72.4977 74.4255 72.32 74.4717 72.1643 74.5642C72.0134 74.6518 71.8942 74.7735 71.8065 74.9292C71.7238 75.085 71.6824 75.2675 71.6824 75.4768C71.6824 75.6812 71.7238 75.8637 71.8065 76.0244C71.8942 76.1801 72.0134 76.3042 72.1643 76.3967C72.32 76.4843 72.4977 76.5281 72.6972 76.5281C72.8676 76.5281 73.0234 76.4989 73.1645 76.4405C73.3105 76.3772 73.4346 76.2848 73.5368 76.1631L74.0625 76.696C73.897 76.8907 73.695 77.0416 73.4565 77.1487C73.2229 77.2509 72.9698 77.302 72.6972 77.302ZM76.0304 78.7622C75.6605 78.7622 75.3368 78.694 75.0594 78.5578C74.7819 78.4263 74.558 78.239 74.3877 77.9956L74.9133 77.4699C75.0545 77.6452 75.2151 77.7766 75.3952 77.8642C75.5753 77.9518 75.7919 77.9956 76.045 77.9956C76.3613 77.9956 76.612 77.9128 76.7969 77.7474C76.9819 77.5867 77.0744 77.3653 77.0744 77.083V76.2215L77.2131 75.4476L77.0744 74.6664V73.7246H77.8775V77.083C77.8775 77.4188 77.7996 77.7109 77.6438 77.9591C77.4881 78.2122 77.2715 78.4093 76.9941 78.5505C76.7166 78.6916 76.3954 78.7622 76.0304 78.7622ZM75.9939 77.156C75.6824 77.156 75.4001 77.0806 75.147 76.9297C74.8987 76.7739 74.7016 76.5622 74.5556 76.2945C74.4144 76.0268 74.3439 75.7275 74.3439 75.3965C74.3439 75.0655 74.4144 74.7686 74.5556 74.5058C74.7016 74.243 74.8987 74.0361 75.147 73.8852C75.4001 73.7295 75.6824 73.6516 75.9939 73.6516C76.2713 73.6516 76.5146 73.7076 76.7239 73.8195C76.9332 73.9315 77.0963 74.0872 77.2131 74.2868C77.3299 74.4815 77.3883 74.7102 77.3883 74.973V75.8345C77.3883 76.0925 77.3275 76.3213 77.2058 76.5208C77.089 76.7204 76.9259 76.8761 76.7166 76.9881C76.5073 77.1 76.2664 77.156 75.9939 77.156ZM76.1545 76.3967C76.3492 76.3967 76.5195 76.3553 76.6655 76.2726C76.8116 76.1899 76.9235 76.0755 77.0014 75.9295C77.0841 75.7786 77.1255 75.6034 77.1255 75.4038C77.1255 75.2042 77.0841 75.0315 77.0014 74.8854C76.9235 74.7346 76.8116 74.6177 76.6655 74.535C76.5195 74.4523 76.3492 74.4109 76.1545 74.4109C75.9598 74.4109 75.787 74.4523 75.6361 74.535C75.4901 74.6177 75.3757 74.7346 75.293 74.8854C75.2102 75.0315 75.1689 75.2042 75.1689 75.4038C75.1689 75.5985 75.2102 75.7713 75.293 75.9222C75.3757 76.073 75.4901 76.1899 75.6361 76.2726C75.787 76.3553 75.9598 76.3967 76.1545 76.3967ZM78.39 77.521L80.4342 71.8264H81.1862L79.1419 77.521H78.39ZM82.5396 77.302C82.3449 77.302 82.1575 77.2777 81.9774 77.229C81.7973 77.1755 81.6318 77.1025 81.4809 77.01C81.3301 76.9126 81.1986 76.7958 81.0867 76.6595L81.5978 76.1485C81.7194 76.2896 81.8582 76.3967 82.0139 76.4697C82.1745 76.5379 82.3546 76.5719 82.5542 76.5719C82.7343 76.5719 82.8705 76.5452 82.963 76.4916C83.0555 76.4381 83.1017 76.3602 83.1017 76.258C83.1017 76.1509 83.0579 76.0682 82.9703 76.0098C82.8827 75.9514 82.7683 75.9027 82.6272 75.8637C82.4909 75.8199 82.3449 75.7761 82.1891 75.7323C82.0382 75.6885 81.8922 75.6301 81.7511 75.5571C81.6148 75.4792 81.5028 75.3746 81.4152 75.2432C81.3276 75.1118 81.2838 74.9414 81.2838 74.7321C81.2838 74.5082 81.3349 74.316 81.4371 74.1554C81.5442 73.9947 81.6927 73.8706 81.8825 73.783C82.0772 73.6954 82.3084 73.6516 82.5761 73.6516C82.8584 73.6516 83.1066 73.7027 83.3208 73.8049C83.5398 73.9023 83.7223 74.0507 83.8683 74.2503L83.3573 74.7613C83.255 74.6348 83.1382 74.5399 83.0068 74.4766C82.8754 74.4133 82.7245 74.3817 82.5542 74.3817C82.3935 74.3817 82.2694 74.406 82.1818 74.4547C82.0942 74.5034 82.0504 74.5739 82.0504 74.6664C82.0504 74.7638 82.0942 74.8392 82.1818 74.8927C82.2694 74.9463 82.3814 74.9925 82.5177 75.0315C82.6588 75.0704 82.8048 75.1142 82.9557 75.1629C83.1115 75.2067 83.2575 75.2699 83.3938 75.3527C83.5349 75.4306 83.6493 75.5376 83.7369 75.6739C83.8245 75.8053 83.8683 75.9781 83.8683 76.1923C83.8683 76.533 83.7491 76.8031 83.5106 77.0027C83.2721 77.2022 82.9484 77.302 82.5396 77.302ZM86.1585 77.302C85.8081 77.302 85.4917 77.2241 85.2094 77.0684C84.932 76.9078 84.7105 76.6887 84.545 76.4113C84.3844 76.1339 84.3041 75.8224 84.3041 75.4768C84.3041 75.1312 84.3844 74.8222 84.545 74.5496C84.7056 74.2722 84.9222 74.0531 85.1948 73.8925C85.4722 73.7319 85.7788 73.6516 86.1147 73.6516C86.4408 73.6516 86.728 73.727 86.9762 73.8779C87.2293 74.0288 87.4264 74.2357 87.5676 74.4985C87.7136 74.7613 87.7866 75.0607 87.7866 75.3965C87.7866 75.4549 87.7817 75.5157 87.772 75.579C87.7671 75.6374 87.7574 75.7031 87.7428 75.7761H84.8662V75.1191H87.3266L87.0273 75.3819C87.0176 75.1677 86.9762 74.9876 86.9032 74.8416C86.8302 74.6956 86.7255 74.5837 86.5892 74.5058C86.4578 74.4279 86.2948 74.389 86.1001 74.389C85.8957 74.389 85.718 74.4328 85.5671 74.5204C85.4162 74.608 85.2994 74.7321 85.2167 74.8927C85.1339 75.0485 85.0926 75.2359 85.0926 75.4549C85.0926 75.6739 85.1364 75.8662 85.224 76.0317C85.3116 76.1972 85.4357 76.3261 85.5963 76.4186C85.7569 76.5062 85.9419 76.55 86.1512 76.55C86.3313 76.55 86.4968 76.5184 86.6476 76.4551C86.8034 76.3918 86.9348 76.2994 87.0419 76.1777L87.5529 76.696C87.3826 76.8956 87.1757 77.0465 86.9324 77.1487C86.689 77.2509 86.4311 77.302 86.1585 77.302ZM88.4304 77.229V73.7246H89.2335V77.229H88.4304ZM89.2335 75.2797L88.956 75.141C88.956 74.6981 89.0534 74.3403 89.2481 74.0677C89.4476 73.7903 89.7469 73.6516 90.1461 73.6516C90.3213 73.6516 90.4795 73.6832 90.6206 73.7465C90.7618 73.8098 90.8932 73.912 91.0149 74.0531L90.4892 74.5934C90.4259 74.5253 90.3553 74.4766 90.2775 74.4474C90.1996 74.4182 90.1096 74.4036 90.0073 74.4036C89.7834 74.4036 89.5985 74.4742 89.4525 74.6153C89.3065 74.7565 89.2335 74.9779 89.2335 75.2797ZM92.5363 77.229L90.9374 73.7246H91.8281L93.0473 76.5792H92.5217L93.7482 73.7246H94.6024L93.0035 77.229H92.5363ZM95.0826 77.229V73.7246H95.8856V77.229H95.0826ZM95.4841 73.0821C95.3478 73.0821 95.2334 73.0359 95.141 72.9434C95.0534 72.8509 95.0095 72.7366 95.0095 72.6003C95.0095 72.464 95.0534 72.3496 95.141 72.2571C95.2334 72.1647 95.3478 72.1184 95.4841 72.1184C95.6253 72.1184 95.7396 72.1647 95.8272 72.2571C95.9148 72.3496 95.9587 72.464 95.9587 72.6003C95.9587 72.7366 95.9148 72.8509 95.8272 72.9434C95.7396 73.0359 95.6253 73.0821 95.4841 73.0821ZM99.1884 77.229V75.2067C99.1884 74.973 99.1129 74.7808 98.962 74.6299C98.816 74.479 98.6262 74.4036 98.3926 74.4036C98.2368 74.4036 98.0981 74.4377 97.9764 74.5058C97.8547 74.5739 97.7598 74.6688 97.6917 74.7905C97.6235 74.9122 97.5895 75.0509 97.5895 75.2067L97.2755 75.0315C97.2755 74.7638 97.3339 74.5277 97.4508 74.3233C97.5676 74.114 97.7282 73.9509 97.9326 73.8341C98.1419 73.7124 98.3755 73.6516 98.6335 73.6516C98.8963 73.6516 99.13 73.7197 99.3344 73.856C99.5388 73.9874 99.6994 74.1602 99.8162 74.3744C99.933 74.5837 99.9914 74.8027 99.9914 75.0315V77.229H99.1884ZM96.7864 77.229V73.7246H97.5895V77.229H96.7864ZM102.268 78.7622C101.898 78.7622 101.574 78.694 101.297 78.5578C101.019 78.4263 100.795 78.239 100.625 77.9956L101.151 77.4699C101.292 77.6452 101.452 77.7766 101.633 77.8642C101.813 77.9518 102.029 77.9956 102.282 77.9956C102.599 77.9956 102.849 77.9128 103.034 77.7474C103.219 77.5867 103.312 77.3653 103.312 77.083V76.2215L103.45 75.4476L103.312 74.6664V73.7246H104.115V77.083C104.115 77.4188 104.037 77.7109 103.881 77.9591C103.725 78.2122 103.509 78.4093 103.231 78.5505C102.954 78.6916 102.633 78.7622 102.268 78.7622ZM102.231 77.156C101.92 77.156 101.637 77.0806 101.384 76.9297C101.136 76.7739 100.939 76.5622 100.793 76.2945C100.652 76.0268 100.581 75.7275 100.581 75.3965C100.581 75.0655 100.652 74.7686 100.793 74.5058C100.939 74.243 101.136 74.0361 101.384 73.8852C101.637 73.7295 101.92 73.6516 102.231 73.6516C102.509 73.6516 102.752 73.7076 102.961 73.8195C103.171 73.9315 103.334 74.0872 103.45 74.2868C103.567 74.4815 103.626 74.7102 103.626 74.973V75.8345C103.626 76.0925 103.565 76.3213 103.443 76.5208C103.326 76.7204 103.163 76.8761 102.954 76.9881C102.745 77.1 102.504 77.156 102.231 77.156ZM102.392 76.3967C102.587 76.3967 102.757 76.3553 102.903 76.2726C103.049 76.1899 103.161 76.0755 103.239 75.9295C103.321 75.7786 103.363 75.6034 103.363 75.4038C103.363 75.2042 103.321 75.0315 103.239 74.8854C103.161 74.7346 103.049 74.6177 102.903 74.535C102.757 74.4523 102.587 74.4109 102.392 74.4109C102.197 74.4109 102.024 74.4523 101.873 74.535C101.727 74.6177 101.613 74.7346 101.53 74.8854C101.448 75.0315 101.406 75.2042 101.406 75.4038C101.406 75.5985 101.448 75.7713 101.53 75.9222C101.613 76.073 101.727 76.1899 101.873 76.2726C102.024 76.3553 102.197 76.3967 102.392 76.3967ZM107.155 77.229V76.4624H108.498C108.849 76.4624 109.155 76.387 109.418 76.2361C109.686 76.0852 109.893 75.8759 110.039 75.6082C110.19 75.3357 110.265 75.0217 110.265 74.6664C110.265 74.316 110.19 74.0069 110.039 73.7392C109.888 73.4715 109.678 73.2622 109.411 73.1113C109.148 72.9605 108.844 72.885 108.498 72.885H107.155V72.1184H108.52C108.89 72.1184 109.233 72.1841 109.549 72.3155C109.866 72.4421 110.141 72.6222 110.374 72.8558C110.613 73.0846 110.798 73.3547 110.929 73.6662C111.061 73.9728 111.126 74.3087 111.126 74.6737C111.126 75.0339 111.061 75.3697 110.929 75.6812C110.798 75.9927 110.615 76.2653 110.382 76.4989C110.148 76.7277 109.873 76.9078 109.557 77.0392C109.24 77.1657 108.9 77.229 108.535 77.229H107.155ZM106.578 77.229V72.1184H107.418V77.229H106.578ZM113.501 77.302C113.151 77.302 112.834 77.2241 112.552 77.0684C112.274 76.9078 112.053 76.6887 111.887 76.4113C111.727 76.1339 111.647 75.8224 111.647 75.4768C111.647 75.1312 111.727 74.8222 111.887 74.5496C112.048 74.2722 112.265 74.0531 112.537 73.8925C112.815 73.7319 113.121 73.6516 113.457 73.6516C113.783 73.6516 114.07 73.727 114.319 73.8779C114.572 74.0288 114.769 74.2357 114.91 74.4985C115.056 74.7613 115.129 75.0607 115.129 75.3965C115.129 75.4549 115.124 75.5157 115.114 75.579C115.11 75.6374 115.1 75.7031 115.085 75.7761H112.209V75.1191H114.669L114.37 75.3819C114.36 75.1677 114.319 74.9876 114.246 74.8416C114.173 74.6956 114.068 74.5837 113.932 74.5058C113.8 74.4279 113.637 74.389 113.443 74.389C113.238 74.389 113.06 74.4328 112.91 74.5204C112.759 74.608 112.642 74.7321 112.559 74.8927C112.476 75.0485 112.435 75.2359 112.435 75.4549C112.435 75.6739 112.479 75.8662 112.566 76.0317C112.654 76.1972 112.778 76.3261 112.939 76.4186C113.099 76.5062 113.284 76.55 113.494 76.55C113.674 76.55 113.839 76.5184 113.99 76.4551C114.146 76.3918 114.277 76.2994 114.384 76.1777L114.895 76.696C114.725 76.8956 114.518 77.0465 114.275 77.1487C114.031 77.2509 113.774 77.302 113.501 77.302ZM116.213 77.229V72.2644H117.016V77.229H116.213ZM115.373 74.4547V73.7246H117.856V74.4547H115.373ZM119.968 77.302C119.617 77.302 119.301 77.2241 119.018 77.0684C118.741 76.9078 118.52 76.6887 118.354 76.4113C118.193 76.1339 118.113 75.8224 118.113 75.4768C118.113 75.1312 118.193 74.8222 118.354 74.5496C118.515 74.2722 118.731 74.0531 119.004 73.8925C119.281 73.7319 119.588 73.6516 119.924 73.6516C120.25 73.6516 120.537 73.727 120.785 73.8779C121.038 74.0288 121.236 74.2357 121.377 74.4985C121.523 74.7613 121.596 75.0607 121.596 75.3965C121.596 75.4549 121.591 75.5157 121.581 75.579C121.576 75.6374 121.566 75.7031 121.552 75.7761H118.675V75.1191H121.136L120.836 75.3819C120.827 75.1677 120.785 74.9876 120.712 74.8416C120.639 74.6956 120.535 74.5837 120.398 74.5058C120.267 74.4279 120.104 74.389 119.909 74.389C119.705 74.389 119.527 74.4328 119.376 74.5204C119.225 74.608 119.109 74.7321 119.026 74.8927C118.943 75.0485 118.902 75.2359 118.902 75.4549C118.902 75.6739 118.945 75.8662 119.033 76.0317C119.121 76.1972 119.245 76.3261 119.405 76.4186C119.566 76.5062 119.751 76.55 119.96 76.55C120.14 76.55 120.306 76.5184 120.457 76.4551C120.613 76.3918 120.744 76.2994 120.851 76.1777L121.362 76.696C121.192 76.8956 120.985 77.0465 120.741 77.1487C120.498 77.2509 120.24 77.302 119.968 77.302ZM123.853 77.302C123.507 77.302 123.193 77.2217 122.911 77.0611C122.634 76.9005 122.415 76.6814 122.254 76.404C122.093 76.1266 122.013 75.8175 122.013 75.4768C122.013 75.1312 122.093 74.8222 122.254 74.5496C122.415 74.2722 122.634 74.0531 122.911 73.8925C123.193 73.7319 123.507 73.6516 123.853 73.6516C124.126 73.6516 124.379 73.7051 124.612 73.8122C124.851 73.9144 125.053 74.0629 125.218 74.2576L124.693 74.7905C124.59 74.6688 124.466 74.5788 124.32 74.5204C124.179 74.4571 124.023 74.4255 123.853 74.4255C123.653 74.4255 123.476 74.4717 123.32 74.5642C123.169 74.6518 123.05 74.7735 122.962 74.9292C122.88 75.085 122.838 75.2675 122.838 75.4768C122.838 75.6812 122.88 75.8637 122.962 76.0244C123.05 76.1801 123.169 76.3042 123.32 76.3967C123.476 76.4843 123.653 76.5281 123.853 76.5281C124.023 76.5281 124.179 76.4989 124.32 76.4405C124.466 76.3772 124.59 76.2848 124.693 76.1631L125.218 76.696C125.053 76.8907 124.851 77.0416 124.612 77.1487C124.379 77.2509 124.126 77.302 123.853 77.302ZM126.273 77.229V72.2644H127.076V77.229H126.273ZM125.434 74.4547V73.7246H127.916V74.4547H125.434ZM130.028 77.302C129.677 77.302 129.361 77.2241 129.079 77.0684C128.801 76.9078 128.58 76.6887 128.414 76.4113C128.254 76.1339 128.173 75.8224 128.173 75.4768C128.173 75.1312 128.254 74.8222 128.414 74.5496C128.575 74.2722 128.791 74.0531 129.064 73.8925C129.341 73.7319 129.648 73.6516 129.984 73.6516C130.31 73.6516 130.597 73.727 130.845 73.8779C131.098 74.0288 131.296 74.2357 131.437 74.4985C131.583 74.7613 131.656 75.0607 131.656 75.3965C131.656 75.4549 131.651 75.5157 131.641 75.579C131.636 75.6374 131.627 75.7031 131.612 75.7761H128.735V75.1191H131.196L130.896 75.3819C130.887 75.1677 130.845 74.9876 130.772 74.8416C130.699 74.6956 130.595 74.5837 130.458 74.5058C130.327 74.4279 130.164 74.389 129.969 74.389C129.765 74.389 129.587 74.4328 129.436 74.5204C129.285 74.608 129.169 74.7321 129.086 74.8927C129.003 75.0485 128.962 75.2359 128.962 75.4549C128.962 75.6739 129.006 75.8662 129.093 76.0317C129.181 76.1972 129.305 76.3261 129.465 76.4186C129.626 76.5062 129.811 76.55 130.02 76.55C130.2 76.55 130.366 76.5184 130.517 76.4551C130.673 76.3918 130.804 76.2994 130.911 76.1777L131.422 76.696C131.252 76.8956 131.045 77.0465 130.802 77.1487C130.558 77.2509 130.3 77.302 130.028 77.302ZM133.767 77.302C133.451 77.302 133.163 77.2217 132.905 77.0611C132.652 76.9005 132.45 76.6839 132.299 76.4113C132.153 76.1339 132.08 75.8248 132.08 75.4841C132.08 75.1385 132.153 74.8295 132.299 74.5569C132.45 74.2795 132.652 74.0604 132.905 73.8998C133.163 73.7343 133.451 73.6516 133.767 73.6516C134.035 73.6516 134.271 73.71 134.475 73.8268C134.684 73.9388 134.85 74.0945 134.972 74.2941C135.093 74.4936 135.154 74.72 135.154 74.973V75.9806C135.154 76.2337 135.093 76.46 134.972 76.6595C134.855 76.8591 134.692 77.0173 134.482 77.1341C134.273 77.246 134.035 77.302 133.767 77.302ZM133.898 76.5427C134.098 76.5427 134.271 76.4989 134.417 76.4113C134.568 76.3188 134.684 76.1923 134.767 76.0317C134.85 75.871 134.891 75.6861 134.891 75.4768C134.891 75.2675 134.85 75.0826 134.767 74.9219C134.684 74.7613 134.568 74.6372 134.417 74.5496C134.271 74.4571 134.098 74.4109 133.898 74.4109C133.704 74.4109 133.531 74.4571 133.38 74.5496C133.234 74.6372 133.117 74.7613 133.03 74.9219C132.947 75.0826 132.905 75.2675 132.905 75.4768C132.905 75.6861 132.947 75.871 133.03 76.0317C133.117 76.1923 133.234 76.3188 133.38 76.4113C133.531 76.4989 133.704 76.5427 133.898 76.5427ZM135.643 77.229H134.84V76.2872L134.979 75.433L134.84 74.5861V71.9724H135.643V77.229Z" fill="#838383"/>
<rect x="176.1" y="25.3501" width="66.75" height="57.75" rx="7.5" fill="#FFE3E2" fill-opacity="0.67"/>
<g filter="url(#filter1_dd_345_787)">
<path d="M192.774 55.0292C191.971 55.0292 191.243 54.8501 190.592 54.4918C189.951 54.1335 189.441 53.6558 189.061 53.0586C188.692 52.4506 188.507 51.772 188.507 51.0229C188.507 50.0457 188.849 49.0577 189.533 48.0588L192.774 43.3521H195.657L192.058 48.3682L191.097 48.4497C191.249 48.1891 191.406 47.9665 191.569 47.7819C191.743 47.5865 191.96 47.4399 192.22 47.3422C192.481 47.2336 192.812 47.1793 193.214 47.1793C193.93 47.1793 194.571 47.3476 195.136 47.6842C195.711 48.0099 196.172 48.4605 196.52 49.036C196.867 49.6005 197.041 50.252 197.041 50.9903C197.041 51.7395 196.851 52.4235 196.471 53.0423C196.091 53.6504 195.581 54.1335 194.94 54.4918C194.3 54.8501 193.578 55.0292 192.774 55.0292ZM192.774 52.798C193.111 52.798 193.415 52.7166 193.686 52.5538C193.958 52.3909 194.169 52.1683 194.321 51.886C194.473 51.6037 194.549 51.2889 194.549 50.9414C194.549 50.5831 194.473 50.2683 194.321 49.9968C194.169 49.7145 193.958 49.4974 193.686 49.3454C193.415 49.1825 193.111 49.1011 192.774 49.1011C192.427 49.1011 192.117 49.1825 191.846 49.3454C191.585 49.4974 191.379 49.7145 191.227 49.9968C191.075 50.2683 190.999 50.5831 190.999 50.9414C190.999 51.2889 191.075 51.6037 191.227 51.886C191.379 52.1683 191.585 52.3909 191.846 52.5538C192.117 52.7166 192.427 52.798 192.774 52.798ZM199.879 55.0292C199.455 55.0292 199.102 54.8827 198.82 54.5895C198.538 54.2964 198.397 53.9435 198.397 53.5309C198.397 53.0966 198.538 52.7383 198.82 52.456C199.102 52.1629 199.455 52.0163 199.879 52.0163C200.313 52.0163 200.666 52.1629 200.937 52.456C201.22 52.7383 201.361 53.0966 201.361 53.5309C201.361 53.9435 201.22 54.2964 200.937 54.5895C200.666 54.8827 200.313 55.0292 199.879 55.0292ZM206.895 55.0292C206.07 55.0292 205.348 54.8827 204.729 54.5895C204.121 54.2964 203.643 53.8946 203.296 53.3843C202.959 52.8741 202.791 52.2932 202.791 51.6417C202.791 51.0989 202.894 50.6103 203.1 50.176C203.317 49.7417 203.616 49.378 203.996 49.0848C204.387 48.7917 204.837 48.5908 205.348 48.4822L205.299 49.0034C204.865 48.9057 204.495 48.7265 204.191 48.4659C203.887 48.1945 203.654 47.8688 203.491 47.4888C203.328 47.1088 203.247 46.7125 203.247 46.2999C203.247 45.6919 203.399 45.1544 203.703 44.6876C204.018 44.2098 204.452 43.8353 205.006 43.5638C205.559 43.2924 206.189 43.1567 206.895 43.1567C207.612 43.1567 208.241 43.2924 208.784 43.5638C209.338 43.8353 209.767 44.2098 210.071 44.6876C210.386 45.1544 210.543 45.6919 210.543 46.2999C210.543 46.7125 210.462 47.1088 210.299 47.4888C210.147 47.8688 209.919 48.1945 209.615 48.4659C209.311 48.7265 208.942 48.9057 208.507 49.0034L208.442 48.4822C208.963 48.5908 209.414 48.7917 209.794 49.0848C210.185 49.378 210.483 49.7417 210.69 50.176C210.896 50.6103 210.999 51.0989 210.999 51.6417C210.999 52.2932 210.831 52.8741 210.494 53.3843C210.158 53.8946 209.68 54.2964 209.061 54.5895C208.453 54.8827 207.731 55.0292 206.895 55.0292ZM206.895 52.8469C207.221 52.8469 207.508 52.7818 207.758 52.6515C208.008 52.5103 208.203 52.3203 208.344 52.0815C208.496 51.8426 208.572 51.5766 208.572 51.2834C208.572 50.9794 208.496 50.7134 208.344 50.4854C208.203 50.2466 208.008 50.062 207.758 49.9317C207.508 49.7905 207.221 49.72 206.895 49.72C206.569 49.72 206.281 49.7905 206.032 49.9317C205.782 50.062 205.587 50.2466 205.445 50.4854C205.304 50.7134 205.234 50.9794 205.234 51.2834C205.234 51.5766 205.304 51.8426 205.445 52.0815C205.587 52.3203 205.782 52.5103 206.032 52.6515C206.281 52.7818 206.569 52.8469 206.895 52.8469ZM206.895 47.8634C207.275 47.8634 207.584 47.7439 207.823 47.5051C208.073 47.2553 208.198 46.9459 208.198 46.5768C208.198 46.1967 208.073 45.8873 207.823 45.6484C207.584 45.3987 207.275 45.2739 206.895 45.2739C206.526 45.2739 206.216 45.3933 205.967 45.6322C205.717 45.871 205.592 46.1805 205.592 46.5605C205.592 46.9296 205.717 47.2391 205.967 47.4888C206.216 47.7385 206.526 47.8634 206.895 47.8634ZM211.791 53.4169L216.204 48.8568C216.476 48.5854 216.693 48.3357 216.856 48.1076C217.019 47.8796 217.138 47.6679 217.214 47.4725C217.29 47.2662 217.328 47.0599 217.328 46.8536C217.328 46.4085 217.182 46.061 216.888 45.8113C216.606 45.5507 216.231 45.4204 215.765 45.4204C215.309 45.4204 214.896 45.5453 214.527 45.795C214.169 46.0339 213.821 46.4302 213.485 46.9839L211.775 45.5019C212.231 44.731 212.811 44.1501 213.517 43.7593C214.223 43.3684 215.032 43.173 215.944 43.173C216.736 43.173 217.42 43.3195 217.996 43.6127C218.582 43.9058 219.033 44.3238 219.348 44.8667C219.673 45.4096 219.836 46.0447 219.836 46.7722C219.836 47.2282 219.776 47.6516 219.657 48.0425C219.538 48.4225 219.342 48.8025 219.071 49.1825C218.81 49.5517 218.457 49.9588 218.012 50.404L214.95 53.4495L211.791 53.4169ZM211.791 54.8501V53.4169L213.957 52.6678H220.064V54.8501H211.791ZM221.586 54.8501L228.475 43.3521H230.755L223.866 54.8501H221.586ZM228.785 55.013C228.339 55.013 227.932 54.9044 227.563 54.6872C227.205 54.4701 226.917 54.1824 226.7 53.8241C226.483 53.4549 226.374 53.0478 226.374 52.6026C226.374 52.1466 226.483 51.7449 226.7 51.3974C226.917 51.0391 227.205 50.7514 227.563 50.5343C227.921 50.3171 228.323 50.2086 228.768 50.2086C229.235 50.2086 229.648 50.3171 230.006 50.5343C230.375 50.7514 230.668 51.0391 230.886 51.3974C231.103 51.7449 231.211 52.1466 231.211 52.6026C231.211 53.0478 231.103 53.4549 230.886 53.8241C230.668 54.1932 230.375 54.4864 230.006 54.7035C229.648 54.9098 229.241 55.013 228.785 55.013ZM228.785 53.3192C228.991 53.3192 229.159 53.2541 229.289 53.1238C229.42 52.9935 229.485 52.8198 229.485 52.6026C229.485 52.4072 229.42 52.2443 229.289 52.114C229.159 51.9729 228.991 51.9023 228.785 51.9023C228.589 51.9023 228.426 51.9729 228.296 52.114C228.166 52.2443 228.101 52.4072 228.101 52.6026C228.101 52.8198 228.166 52.9935 228.296 53.1238C228.426 53.2541 228.589 53.3192 228.785 53.3192ZM223.54 47.9774C223.095 47.9774 222.688 47.8742 222.319 47.6679C221.961 47.4508 221.673 47.1631 221.456 46.8048C221.239 46.4356 221.13 46.023 221.13 45.567C221.13 45.1219 221.239 44.7201 221.456 44.3618C221.673 44.0036 221.961 43.7213 222.319 43.515C222.677 43.2978 223.079 43.1892 223.524 43.1892C223.991 43.1892 224.404 43.2978 224.762 43.515C225.131 43.7213 225.424 44.0036 225.641 44.3618C225.859 44.7201 225.967 45.1219 225.967 45.567C225.967 46.023 225.859 46.4356 225.641 46.8048C225.424 47.1631 225.131 47.4508 224.762 47.6679C224.404 47.8742 223.996 47.9774 223.54 47.9774ZM223.54 46.2836C223.747 46.2836 223.915 46.2185 224.045 46.0882C224.176 45.9579 224.241 45.7896 224.241 45.5833C224.241 45.377 224.176 45.2087 224.045 45.0784C223.915 44.9481 223.747 44.883 223.54 44.883C223.345 44.883 223.182 44.9481 223.052 45.0784C222.922 45.2087 222.856 45.377 222.856 45.5833C222.856 45.7896 222.922 45.9579 223.052 46.0882C223.182 46.2185 223.345 46.2836 223.54 46.2836Z" fill="#F96464"/>
</g>
<g filter="url(#filter2_dd_345_787)">
<path d="M190.423 67.7087C189.916 67.7087 189.46 67.5892 189.055 67.3504C188.649 67.1115 188.327 66.7894 188.088 66.3841C187.849 65.9715 187.73 65.5119 187.73 65.0052C187.73 64.5057 187.849 64.057 188.088 63.6589C188.327 63.2535 188.649 62.9314 189.055 62.6926C189.46 62.4537 189.916 62.3343 190.423 62.3343C190.922 62.3343 191.374 62.4537 191.78 62.6926C192.192 62.9242 192.518 63.2427 192.757 63.648C192.996 64.0533 193.115 64.5057 193.115 65.0052C193.115 65.5119 192.996 65.9715 192.757 66.3841C192.518 66.7894 192.192 67.1115 191.78 67.3504C191.374 67.5892 190.922 67.7087 190.423 67.7087ZM190.423 66.7641C190.748 66.7641 191.038 66.6881 191.291 66.5361C191.545 66.3841 191.744 66.1778 191.888 65.9172C192.033 65.6494 192.106 65.3454 192.106 65.0052C192.106 64.6722 192.03 64.3754 191.878 64.1149C191.733 63.8543 191.534 63.6516 191.28 63.5069C191.034 63.3549 190.748 63.2789 190.423 63.2789C190.097 63.2789 189.807 63.3549 189.554 63.5069C189.301 63.6516 189.102 63.8543 188.957 64.1149C188.812 64.3754 188.74 64.6722 188.74 65.0052C188.74 65.3454 188.812 65.6494 188.957 65.9172C189.102 66.1778 189.301 66.3841 189.554 66.5361C189.807 66.6881 190.097 66.7641 190.423 66.7641ZM195.785 67.6001L193.418 62.4428H194.503L196.403 66.7966H195.774L197.685 62.4428H198.727L196.36 67.6001H195.785ZM201.747 67.7087C201.233 67.7087 200.77 67.5929 200.358 67.3612C199.945 67.1224 199.619 66.8003 199.38 66.3949C199.142 65.9896 199.022 65.53 199.022 65.016C199.022 64.5094 199.138 64.0533 199.37 63.648C199.608 63.2427 199.927 62.9242 200.325 62.6926C200.73 62.4537 201.183 62.3343 201.682 62.3343C202.16 62.3343 202.58 62.4428 202.942 62.66C203.311 62.8771 203.597 63.1775 203.799 63.5611C204.009 63.9448 204.114 64.3791 204.114 64.864C204.114 64.9364 204.111 65.016 204.103 65.1029C204.096 65.1825 204.082 65.2766 204.06 65.3852H199.706V64.5709H203.539L203.181 64.8857C203.181 64.5383 203.119 64.2452 202.996 64.0063C202.873 63.7602 202.699 63.572 202.475 63.4417C202.25 63.3042 201.979 63.2354 201.66 63.2354C201.328 63.2354 201.034 63.3078 200.781 63.4526C200.528 63.5973 200.332 63.8 200.195 64.0606C200.057 64.3212 199.988 64.6288 199.988 64.9835C199.988 65.3454 200.061 65.6639 200.206 65.9389C200.35 66.2067 200.557 66.4166 200.824 66.5686C201.092 66.7134 201.4 66.7858 201.747 66.7858C202.037 66.7858 202.301 66.7351 202.54 66.6338C202.786 66.5325 202.996 66.3804 203.17 66.1778L203.799 66.8184C203.553 67.1079 203.249 67.3287 202.887 67.4807C202.533 67.6327 202.153 67.7087 201.747 67.7087ZM205.18 67.6001V62.4428H206.157V67.6001H205.18ZM206.157 64.6577L205.788 64.4949C205.788 63.8362 205.94 63.3114 206.244 62.9206C206.548 62.5297 206.986 62.3343 207.557 62.3343C207.818 62.3343 208.053 62.3813 208.263 62.4754C208.473 62.5623 208.669 62.7106 208.85 62.9206L208.209 63.5829C208.1 63.467 207.981 63.3838 207.851 63.3331C207.72 63.2825 207.568 63.2571 207.395 63.2571C207.033 63.2571 206.736 63.3729 206.504 63.6046C206.273 63.8362 206.157 64.1873 206.157 64.6577ZM211.987 67.6001V59.8479H212.964V67.6001H211.987ZM214.405 67.6001V62.4428H215.382V67.6001H214.405ZM214.893 61.4114C214.712 61.4114 214.564 61.3535 214.448 61.2377C214.332 61.1146 214.274 60.9626 214.274 60.7816C214.274 60.6079 214.332 60.4632 214.448 60.3474C214.564 60.2243 214.712 60.1628 214.893 60.1628C215.074 60.1628 215.222 60.2243 215.338 60.3474C215.454 60.4632 215.512 60.6079 215.512 60.7816C215.512 60.9626 215.454 61.1146 215.338 61.2377C215.222 61.3535 215.074 61.4114 214.893 61.4114ZM216.822 67.6001V62.4428H217.799V67.6001H216.822ZM220.307 67.6001V64.484C220.307 64.1004 220.188 63.8 219.949 63.5829C219.717 63.3585 219.424 63.2463 219.069 63.2463C218.83 63.2463 218.617 63.2969 218.429 63.3983C218.24 63.4996 218.088 63.6408 217.973 63.8217C217.857 64.0027 217.799 64.2198 217.799 64.4732L217.397 64.2777C217.397 63.8869 217.48 63.5467 217.647 63.2571C217.821 62.9676 218.056 62.7432 218.353 62.584C218.649 62.4175 218.982 62.3343 219.352 62.3343C219.713 62.3343 220.039 62.4139 220.329 62.5731C220.625 62.7324 220.857 62.9567 221.024 63.2463C221.197 63.5358 221.284 63.8796 221.284 64.2777V67.6001H220.307ZM223.792 67.6001V64.484C223.792 64.1004 223.673 63.8 223.434 63.5829C223.202 63.3585 222.913 63.2463 222.565 63.2463C222.326 63.2463 222.109 63.2969 221.914 63.3983C221.726 63.4996 221.574 63.6408 221.458 63.8217C221.342 64.0027 221.284 64.2198 221.284 64.4732L220.73 64.2777C220.752 63.8796 220.857 63.5394 221.045 63.2571C221.241 62.9676 221.49 62.7432 221.794 62.584C222.098 62.4175 222.431 62.3343 222.793 62.3343C223.17 62.3343 223.506 62.4139 223.803 62.5731C224.1 62.7324 224.335 62.9567 224.509 63.2463C224.69 63.5358 224.78 63.8832 224.78 64.2886V67.6001H223.792ZM226.121 67.6001V62.4428H227.098V67.6001H226.121ZM226.609 61.4114C226.428 61.4114 226.28 61.3535 226.164 61.2377C226.048 61.1146 225.99 60.9626 225.99 60.7816C225.99 60.6079 226.048 60.4632 226.164 60.3474C226.28 60.2243 226.428 60.1628 226.609 60.1628C226.79 60.1628 226.939 60.2243 227.055 60.3474C227.17 60.4632 227.228 60.6079 227.228 60.7816C227.228 60.9626 227.17 61.1146 227.055 61.2377C226.939 61.3535 226.79 61.4114 226.609 61.4114ZM229.331 67.6001V60.2822H230.308V67.6001H229.331ZM228.06 63.3331V62.4428H231.578V63.3331H228.06Z" fill="#F96464"/>
</g>
</g>
<defs>
<filter id="filter0_d_345_787" x="7.62939e-06" y="9.91821e-05" width="277.95" height="113.7" filterUnits="userSpaceOnUse" color-interpolation-filters="sRGB">
<feFlood flood-opacity="0" result="BackgroundImageFix"/>
<feColorMatrix in="SourceAlpha" type="matrix" values="0 0 0 0 0 0 0 0 0 0 0 0 0 0 0 0 0 0 127 0" result="hardAlpha"/>
<feOffset dx="3.75" dy="3"/>
<feGaussianBlur stdDeviation="9.675"/>
<feComposite in2="hardAlpha" operator="out"/>
<feColorMatrix type="matrix" values="0 0 0 0 0.0169546 0 0 0 0 0 0 0 0 0 0.339093 0 0 0 0.14 0"/>
<feBlend mode="normal" in2="BackgroundImageFix" result="effect1_dropShadow_345_787"/>
<feBlend mode="normal" in="BackgroundImageFix" in2="effect1_dropShadow_345_787" result="BackgroundImageFix"/>
<feBlend mode="normal" in="SourceGraphic" in2="BackgroundImageFix" result="shape"/>
</filter>
<filter id="filter1_dd_345_787" x="185.507" y="43.1567" width="48.704" height="18.8726" filterUnits="userSpaceOnUse" color-interpolation-filters="sRGB">
<feFlood flood-opacity="0" result="BackgroundImageFix"/>
<feColorMatrix in="SourceAlpha" type="matrix" values="0 0 0 0 0 0 0 0 0 0 0 0 0 0 0 0 0 0 127 0" result="hardAlpha"/>
<feMorphology radius="1" operator="erode" in="SourceAlpha" result="effect1_dropShadow_345_787"/>
<feOffset dy="4"/>
<feGaussianBlur stdDeviation="2"/>
<feComposite in2="hardAlpha" operator="out"/>
<feColorMatrix type="matrix" values="0 0 0 0 1 0 0 0 0 1 0 0 0 0 1 0 0 0 0.05 0"/>
<feBlend mode="normal" in2="BackgroundImageFix" result="effect1_dropShadow_345_787"/>
<feColorMatrix in="SourceAlpha" type="matrix" values="0 0 0 0 0 0 0 0 0 0 0 0 0 0 0 0 0 0 127 0" result="hardAlpha"/>
<feMorphology radius="1" operator="erode" in="SourceAlpha" result="effect2_dropShadow_345_787"/>
<feOffset dy="4"/>
<feGaussianBlur stdDeviation="2"/>
<feComposite in2="hardAlpha" operator="out"/>
<feColorMatrix type="matrix" values="0 0 0 0 0.385761 0 0 0 0 0.385761 0 0 0 0 0.385761 0 0 0 0.17 0"/>
<feBlend mode="normal" in2="effect1_dropShadow_345_787" result="effect2_dropShadow_345_787"/>
<feBlend mode="normal" in="SourceGraphic" in2="effect2_dropShadow_345_787" result="shape"/>
</filter>
<filter id="filter2_dd_345_787" x="184.73" y="59.8479" width="49.848" height="14.8608" filterUnits="userSpaceOnUse" color-interpolation-filters="sRGB">
<feFlood flood-opacity="0" result="BackgroundImageFix"/>
<feColorMatrix in="SourceAlpha" type="matrix" values="0 0 0 0 0 0 0 0 0 0 0 0 0 0 0 0 0 0 127 0" result="hardAlpha"/>
<feMorphology radius="1" operator="erode" in="SourceAlpha" result="effect1_dropShadow_345_787"/>
<feOffset dy="4"/>
<feGaussianBlur stdDeviation="2"/>
<feComposite in2="hardAlpha" operator="out"/>
<feColorMatrix type="matrix" values="0 0 0 0 1 0 0 0 0 1 0 0 0 0 1 0 0 0 0.05 0"/>
<feBlend mode="normal" in2="BackgroundImageFix" result="effect1_dropShadow_345_787"/>
<feColorMatrix in="SourceAlpha" type="matrix" values="0 0 0 0 0 0 0 0 0 0 0 0 0 0 0 0 0 0 127 0" result="hardAlpha"/>
<feMorphology radius="1" operator="erode" in="SourceAlpha" result="effect2_dropShadow_345_787"/>
<feOffset dy="4"/>
<feGaussianBlur stdDeviation="2"/>
<feComposite in2="hardAlpha" operator="out"/>
<feColorMatrix type="matrix" values="0 0 0 0 0.385761 0 0 0 0 0.385761 0 0 0 0 0.385761 0 0 0 0.17 0"/>
<feBlend mode="normal" in2="effect1_dropShadow_345_787" result="effect2_dropShadow_345_787"/>
<feBlend mode="normal" in="SourceGraphic" in2="effect2_dropShadow_345_787" result="shape"/>
</filter>
<linearGradient id="paint0_linear_345_787" x1="30.2069" y1="20.8168" x2="81.6139" y2="160.145" gradientUnits="userSpaceOnUse">
<stop stop-color="white"/>
<stop offset="1" stop-color="white" stop-opacity="0"/>
</linearGradient>
</defs>
</svg>
