<svg width="321" height="108" viewBox="0 0 321 108" fill="none" xmlns="http://www.w3.org/2000/svg">
<g filter="url(#filter0_dd_345_724)">
<rect x="52.2552" y="11.85" width="263.7" height="45.9" rx="6.92615" transform="rotate(1.25484 52.2552 11.85)" fill="white" fill-opacity="0.2" shape-rendering="crispEdges"/>
<path d="M97.939 40.0574C97.4245 40.0462 96.9486 39.9455 96.5115 39.7554C96.0745 39.5586 95.6926 39.2928 95.3656 38.958C95.0455 38.6167 94.8 38.2236 94.6292 37.7785C94.4651 37.3337 94.3886 36.8573 94.3998 36.3494C94.4109 35.8415 94.5082 35.3689 94.6916 34.9316C94.8817 34.4945 95.144 34.1158 95.4787 33.7955C95.82 33.4754 96.2099 33.2265 96.6484 33.0489C97.0935 32.8715 97.5768 32.7885 98.098 32.7999C98.6594 32.8122 99.1519 32.9166 99.5755 33.113C99.9992 33.3029 100.371 33.5617 100.692 33.8897L99.7493 34.7917C99.5602 34.5736 99.3266 34.4013 99.0486 34.2749C98.7705 34.1485 98.4444 34.0811 98.0701 34.0729C97.7427 34.0658 97.4407 34.116 97.1642 34.2236C96.8946 34.3247 96.6571 34.4799 96.452 34.6894C96.247 34.8922 96.0878 35.1394 95.9744 35.4311C95.8612 35.7161 95.8008 36.0324 95.7931 36.3799C95.7854 36.7341 95.8318 37.056 95.9325 37.3457C96.0331 37.6354 96.1813 37.8894 96.3771 38.1077C96.573 38.3192 96.8034 38.4847 97.0683 38.6042C97.3398 38.7238 97.6392 38.7872 97.9667 38.7944C98.361 38.803 98.6998 38.7503 98.9831 38.6361C99.2731 38.5221 99.5174 38.357 99.7161 38.1407L100.618 39.0831C100.283 39.4034 99.897 39.649 99.4586 39.8199C99.0203 39.9909 98.5138 40.07 97.939 40.0574ZM103.301 40.1749C102.859 40.1652 102.464 40.0462 102.115 39.8179C101.766 39.5896 101.495 39.2828 101.303 38.8975C101.11 38.5122 101.02 38.0823 101.03 37.6078C101.041 37.1267 101.15 36.6978 101.359 36.3213C101.568 35.9448 101.852 35.6501 102.211 35.4373C102.57 35.2246 102.97 35.123 103.411 35.1327C103.758 35.1403 104.068 35.2173 104.339 35.3636C104.61 35.5099 104.822 35.7118 104.977 35.9693C105.139 36.2202 105.223 36.5029 105.229 36.8173L105.191 38.5615C105.171 38.882 105.074 39.164 104.902 39.4076C104.736 39.6514 104.515 39.8438 104.237 39.9848C103.96 40.1191 103.648 40.1825 103.301 40.1749ZM103.568 38.9672C103.935 38.9753 104.235 38.8615 104.468 38.6259C104.7 38.3836 104.821 38.0686 104.829 37.681C104.835 37.4271 104.786 37.202 104.684 37.0059C104.588 36.8032 104.448 36.6464 104.263 36.5353C104.085 36.4178 103.872 36.3563 103.625 36.3509C103.384 36.3456 103.169 36.3977 102.98 36.5072C102.797 36.6102 102.65 36.7608 102.539 36.9589C102.434 37.1505 102.379 37.3733 102.373 37.6272C102.368 37.8879 102.413 38.1195 102.509 38.3222C102.611 38.5184 102.752 38.6752 102.93 38.7928C103.114 38.9038 103.327 38.9619 103.568 38.9672ZM104.706 40.1054L104.735 38.8022L104.971 37.624L104.786 36.4565L104.812 35.2637L106.115 35.2922L106.009 40.1339L104.706 40.1054ZM109.234 40.3048C108.806 40.2955 108.427 40.1969 108.097 40.0091C107.773 39.8215 107.522 39.5653 107.342 39.2404C107.161 38.9155 107.076 38.5426 107.085 38.1216L107.147 35.3148L108.47 35.3438L108.409 38.1205C108.405 38.321 108.434 38.4955 108.498 38.644C108.562 38.7858 108.66 38.8949 108.792 38.9713C108.924 39.0478 109.08 39.0879 109.26 39.0919C109.534 39.0979 109.75 39.0191 109.907 38.8553C110.065 38.6916 110.147 38.4594 110.153 38.1587L110.214 35.382L111.527 35.4107L111.466 38.2175C111.456 38.6452 111.355 39.0174 111.161 39.3341C110.973 39.6509 110.71 39.8959 110.372 40.069C110.041 40.2356 109.661 40.3142 109.234 40.3048ZM113.179 40.291L113.329 33.4344L114.642 33.4631L114.492 40.3197L113.179 40.291ZM112.127 36.5772L112.152 35.4244L115.731 35.5028L115.705 36.6556L112.127 36.5772ZM116.363 40.3607L116.469 35.519L117.792 35.548L117.686 40.3897L116.363 40.3607ZM117.148 34.7516C116.934 34.7469 116.759 34.6729 116.621 34.5294C116.484 34.3794 116.418 34.1974 116.423 33.9835C116.427 33.7764 116.501 33.6008 116.645 33.4569C116.788 33.3129 116.967 33.2433 117.181 33.248C117.401 33.2528 117.577 33.3302 117.707 33.4801C117.844 33.6302 117.911 33.8089 117.906 34.016C117.902 34.2299 117.827 34.4088 117.684 34.5527C117.547 34.6901 117.368 34.7564 117.148 34.7516ZM121.123 40.5653C120.635 40.5546 120.196 40.4346 119.807 40.2055C119.424 39.9698 119.12 39.6589 118.895 39.2729C118.676 38.8803 118.572 38.4467 118.582 37.9723C118.593 37.4978 118.716 37.0759 118.951 36.7066C119.186 36.3307 119.504 36.0368 119.903 35.8249C120.302 35.6063 120.742 35.5023 121.224 35.5128C121.718 35.5237 122.157 35.6469 122.539 35.8826C122.929 36.1118 123.233 36.4193 123.452 36.8052C123.671 37.1844 123.775 37.6113 123.765 38.0858C123.754 38.5603 123.631 38.9888 123.396 39.3714C123.16 39.7474 122.843 40.0446 122.443 40.2632C122.051 40.4753 121.611 40.5759 121.123 40.5653ZM121.14 39.3421C121.387 39.3475 121.605 39.2988 121.795 39.196C121.991 39.0866 122.141 38.9361 122.246 38.7445C122.357 38.5464 122.416 38.3203 122.421 38.0664C122.427 37.8124 122.378 37.5874 122.276 37.3912C122.173 37.1951 122.029 37.0415 121.844 36.9305C121.66 36.8128 121.444 36.7512 121.197 36.7458C120.956 36.7405 120.741 36.7927 120.551 36.9022C120.362 37.005 120.212 37.1521 120.1 37.3436C119.989 37.5351 119.931 37.7578 119.925 38.0117C119.92 38.2657 119.968 38.494 120.071 38.6969C120.173 38.893 120.317 39.0499 120.502 39.1676C120.686 39.2787 120.899 39.3368 121.14 39.3421ZM127.815 40.6116L127.876 37.8348C127.882 37.5475 127.797 37.3116 127.62 37.1272C127.444 36.9428 127.212 36.8475 126.924 36.8412C126.737 36.8371 126.569 36.8735 126.421 36.9505C126.272 37.0275 126.152 37.1385 126.062 37.2836C125.979 37.4289 125.935 37.5984 125.931 37.7922L125.425 37.5204C125.434 37.1395 125.521 36.8104 125.688 36.5333C125.861 36.2496 126.093 36.0307 126.384 35.8766C126.682 35.7226 127.014 35.6497 127.382 35.6577C127.736 35.6655 128.051 35.7627 128.328 35.9493C128.605 36.1292 128.82 36.3645 128.974 36.6554C129.129 36.9396 129.202 37.2454 129.195 37.5729L129.128 40.6403L127.815 40.6116ZM124.557 40.5402L124.663 35.6985L125.976 35.7272L125.87 40.569L124.557 40.5402ZM131.005 40.7817C130.765 40.7765 130.569 40.692 130.419 40.5282C130.269 40.3644 130.196 40.169 130.201 39.9417C130.207 39.7012 130.288 39.5024 130.445 39.3453C130.602 39.1883 130.801 39.1124 131.042 39.1177C131.282 39.123 131.478 39.2075 131.628 39.3712C131.778 39.535 131.851 39.7372 131.845 39.9778C131.84 40.205 131.759 40.3971 131.602 40.5541C131.445 40.7111 131.246 40.787 131.005 40.7817ZM131.072 37.7544C130.831 37.7491 130.636 37.6646 130.486 37.5009C130.335 37.3371 130.263 37.1383 130.268 36.9044C130.273 36.6638 130.354 36.4683 130.512 36.318C130.669 36.161 130.868 36.0851 131.108 36.0904C131.349 36.0957 131.544 36.1802 131.694 36.3439C131.845 36.501 131.917 36.6998 131.912 36.9404C131.907 37.1743 131.826 37.3698 131.668 37.5268C131.511 37.6838 131.312 37.7597 131.072 37.7544ZM135.103 40.7712L135.258 33.7242L136.621 33.754L136.466 40.8011L135.103 40.7712ZM136.106 40.7932L136.132 39.5903L140.031 39.6757L140.005 40.8786L136.106 40.7932ZM136.172 37.7759L136.197 36.613L139.746 36.6908L139.72 37.8536L136.172 37.7759ZM136.234 34.949L136.26 33.7461L140.109 33.8304L140.083 35.0333L136.234 34.949ZM144.02 40.9665L142.79 38.9739L142.524 38.7675L140.698 36.0497L142.252 36.0838L143.386 37.8837L143.632 38.0797L145.564 41.0003L144.02 40.9665ZM140.492 40.8892L142.527 38.1658L143.26 39.0744L141.975 40.9217L140.492 40.8892ZM143.667 38.7825L142.915 37.8834L144.106 36.1244L145.58 36.1567L143.667 38.7825ZM148.396 41.1627C147.902 41.1518 147.46 41.0318 147.07 40.8027C146.681 40.5735 146.377 40.266 146.158 39.8801C145.939 39.4942 145.835 39.064 145.845 38.5895C145.856 38.1083 145.979 37.6798 146.214 37.3038C146.45 36.9279 146.767 36.634 147.166 36.4221C147.572 36.2036 148.019 36.0998 148.507 36.1104C148.888 36.1188 149.237 36.1966 149.555 36.344C149.873 36.4914 150.145 36.6979 150.374 36.9637L149.513 37.7973C149.389 37.6542 149.238 37.5439 149.059 37.4664C148.887 37.3891 148.694 37.3481 148.48 37.3434C148.239 37.3382 148.021 37.3902 147.825 37.4996C147.635 37.6024 147.481 37.7495 147.364 37.9408C147.253 38.1256 147.194 38.3483 147.188 38.6089C147.183 38.8628 147.231 39.0912 147.334 39.2941C147.443 39.4903 147.59 39.6473 147.775 39.7651C147.966 39.8762 148.182 39.9344 148.423 39.9397C148.644 39.9445 148.841 39.9121 149.017 39.8424C149.199 39.7662 149.355 39.6559 149.485 39.5117L150.319 40.3824C150.066 40.6443 149.777 40.8419 149.453 40.9752C149.13 41.1085 148.777 41.171 148.396 41.1627ZM153.252 41.269C152.745 41.2579 152.296 41.1411 151.906 40.9186C151.517 40.6895 151.209 40.3818 150.984 39.9958C150.765 39.6099 150.661 39.173 150.671 38.6852C150.682 38.204 150.802 37.7787 151.03 37.4093C151.266 37.0334 151.58 36.7394 151.972 36.5273C152.365 36.3086 152.798 36.2045 153.273 36.2148C153.741 36.2251 154.149 36.341 154.499 36.5626C154.855 36.7777 155.13 37.0712 155.322 37.4432C155.521 37.8086 155.616 38.2218 155.606 38.6829C155.604 38.7698 155.595 38.8599 155.58 38.9532C155.571 39.0399 155.552 39.1398 155.523 39.2528L151.453 39.1737L151.474 38.1913L154.933 38.257L154.393 38.6564C154.386 38.3687 154.338 38.127 154.248 37.9311C154.166 37.7354 154.038 37.5855 153.867 37.4815C153.702 37.3709 153.496 37.3129 153.249 37.3075C152.988 37.3018 152.76 37.3569 152.563 37.473C152.367 37.5824 152.213 37.7428 152.101 37.9543C151.997 38.1593 151.941 38.4054 151.935 38.6928C151.928 38.9868 151.976 39.2453 152.078 39.4682C152.187 39.6845 152.344 39.8551 152.549 39.9799C152.753 40.0981 152.993 40.1602 153.267 40.1662C153.514 40.1716 153.739 40.1364 153.941 40.0606C154.143 39.9781 154.32 39.8549 154.47 39.6911L155.225 40.4798C154.985 40.7487 154.694 40.9496 154.35 41.0825C154.012 41.2155 153.647 41.2777 153.252 41.269ZM158.676 41.3878C158.168 41.3767 157.719 41.2599 157.329 41.0374C156.94 40.8082 156.632 40.5006 156.407 40.1146C156.188 39.7287 156.084 39.2918 156.095 38.804C156.105 38.3228 156.225 37.8975 156.454 37.5281C156.689 37.1522 157.003 36.8582 157.396 36.6461C157.788 36.4274 158.222 36.3232 158.696 36.3336C159.164 36.3439 159.573 36.4598 159.922 36.6814C160.278 36.8965 160.553 37.19 160.745 37.562C160.945 37.9274 161.039 38.3406 161.029 38.8017C161.027 38.8886 161.018 38.9787 161.003 39.072C160.994 39.1587 160.976 39.2586 160.946 39.3716L156.876 39.2925L156.898 38.3101L160.356 38.3758L159.816 38.7752C159.809 38.4875 159.761 38.2458 159.671 38.0499C159.589 37.8542 159.462 37.7043 159.29 37.6003C159.125 37.4897 158.919 37.4317 158.672 37.4263C158.412 37.4206 158.183 37.4757 157.987 37.5918C157.79 37.7012 157.636 37.8616 157.525 38.0731C157.42 38.2781 157.364 38.5242 157.358 38.8116C157.352 39.1056 157.4 39.3641 157.502 39.587C157.611 39.8033 157.767 39.9739 157.972 40.0987C158.176 40.2169 158.416 40.2789 158.69 40.285C158.937 40.2904 159.162 40.2552 159.364 40.1794C159.566 40.0969 159.743 39.9737 159.894 39.8099L160.649 40.5986C160.409 40.8675 160.117 41.0684 159.773 41.2013C159.436 41.3343 159.07 41.3965 158.676 41.3878ZM163.828 41.5007C163.381 41.4909 162.982 41.3718 162.633 41.1436C162.283 40.9153 162.009 40.6084 161.81 40.2229C161.618 39.8376 161.527 39.4077 161.538 38.9332C161.548 38.4521 161.658 38.0232 161.867 37.6467C162.082 37.2703 162.366 36.9757 162.719 36.7627C163.078 36.55 163.484 36.4486 163.939 36.4585C164.286 36.4661 164.595 36.5431 164.866 36.6894C165.144 36.8359 165.364 37.038 165.525 37.2956C165.693 37.5466 165.781 37.8294 165.787 38.1438L165.75 39.8679C165.729 40.1817 165.633 40.4638 165.46 40.7141C165.288 40.9644 165.059 41.1599 164.775 41.3008C164.492 41.4417 164.176 41.5083 163.828 41.5007ZM164.075 40.2926C164.323 40.298 164.538 40.2492 164.72 40.1463C164.91 40.0368 165.057 39.8862 165.162 39.6946C165.273 39.4964 165.331 39.2671 165.337 39.0064C165.343 38.7525 165.294 38.5274 165.191 38.3313C165.096 38.1286 164.955 37.9718 164.771 37.8607C164.593 37.7432 164.383 37.6818 164.143 37.6765C163.895 37.6711 163.677 37.7231 163.487 37.8326C163.305 37.9423 163.157 38.0928 163.046 38.2843C162.942 38.4759 162.887 38.6987 162.881 38.9526C162.876 39.2133 162.921 39.4449 163.016 39.6476C163.119 39.8437 163.263 40.0007 163.447 40.1184C163.632 40.2294 163.842 40.2875 164.075 40.2926ZM166.517 41.4593L165.214 41.4308L165.242 40.1276L165.479 38.9494L165.284 37.7817L165.363 34.183L166.676 34.2118L166.517 41.4593ZM169.34 41.6315C169.066 41.6255 168.796 41.5828 168.531 41.5034C168.272 41.4242 168.033 41.3187 167.816 41.1869C167.598 41.0484 167.411 40.8838 167.255 40.6932L168.054 39.9184C168.217 40.1092 168.408 40.2538 168.626 40.3522C168.845 40.4506 169.088 40.5027 169.355 40.5085C169.569 40.5132 169.73 40.4867 169.838 40.4289C169.953 40.3712 170.012 40.2822 170.014 40.1619C170.017 40.0283 169.959 39.9234 169.841 39.8472C169.729 39.7712 169.58 39.7078 169.394 39.6569C169.208 39.5994 169.012 39.5382 168.806 39.4735C168.607 39.4023 168.415 39.3145 168.23 39.2102C168.045 39.0992 167.895 38.9521 167.778 38.7691C167.669 38.5795 167.617 38.3376 167.624 38.0436C167.63 37.7362 167.71 37.4705 167.862 37.2465C168.02 37.0226 168.242 36.8503 168.525 36.7295C168.808 36.6086 169.141 36.5524 169.522 36.5607C169.923 36.5695 170.282 36.6476 170.6 36.795C170.924 36.9425 171.19 37.1589 171.398 37.4443L170.588 38.2188C170.445 38.0352 170.281 37.9012 170.096 37.8169C169.917 37.7328 169.721 37.6884 169.507 37.6837C169.313 37.6794 169.162 37.7062 169.054 37.764C168.952 37.822 168.9 37.9044 168.898 38.0113C168.895 38.1316 168.95 38.2264 169.062 38.2957C169.181 38.3652 169.334 38.4287 169.52 38.4863C169.706 38.5372 169.898 38.5982 170.097 38.6694C170.303 38.7341 170.495 38.8252 170.673 38.9428C170.858 39.0605 171.005 39.2142 171.114 39.4038C171.23 39.5935 171.285 39.8354 171.279 40.1295C171.268 40.6039 171.09 40.9778 170.743 41.251C170.396 41.5175 169.928 41.6444 169.34 41.6315ZM175.291 39.0339L175.315 37.9212L176.949 37.957C177.163 37.9617 177.358 37.9225 177.533 37.8394C177.709 37.7564 177.849 37.6357 177.952 37.4775C178.056 37.3127 178.111 37.1133 178.116 36.8794C178.121 36.6522 178.075 36.4539 177.979 36.2846C177.882 36.1154 177.748 35.9854 177.576 35.8947C177.404 35.804 177.211 35.7564 176.997 35.7517L175.363 35.7159L175.388 34.6032L177.162 34.6421C177.61 34.6519 178.009 34.7509 178.359 34.9391C178.716 35.1274 178.994 35.3909 179.194 35.7296C179.394 36.0616 179.489 36.4548 179.479 36.9092C179.469 37.3637 179.357 37.7557 179.143 38.0853C178.928 38.4082 178.639 38.6559 178.274 38.8285C177.916 39.0011 177.513 39.0826 177.065 39.0728L175.291 39.0339ZM174.231 41.6283L174.385 34.5812L175.749 34.6111L175.594 41.6581L174.231 41.6283ZM180.268 41.7605L180.374 36.9188L181.687 36.9476L181.581 41.7893L180.268 41.7605ZM181.64 39.1128L181.136 38.7608C181.209 38.1673 181.393 37.7033 181.688 37.3688C181.983 37.0276 182.401 36.8629 182.942 36.8748C183.176 36.8799 183.386 36.9246 183.571 37.0089C183.757 37.0865 183.924 37.2139 184.074 37.391L183.232 38.3153C183.16 38.2335 183.071 38.1713 182.965 38.1289C182.866 38.0866 182.749 38.064 182.615 38.0611C182.335 38.0549 182.102 38.1401 181.918 38.3166C181.74 38.4865 181.647 38.7519 181.64 39.1128ZM186.574 41.9989C186.086 41.9883 185.648 41.8683 185.258 41.6392C184.876 41.4035 184.572 41.0926 184.346 40.7065C184.127 40.314 184.023 39.8804 184.034 39.4059C184.044 38.9315 184.167 38.5096 184.402 38.1403C184.638 37.7644 184.955 37.4705 185.354 37.2586C185.754 37.04 186.194 36.936 186.675 36.9465C187.169 36.9573 187.608 37.0806 187.991 37.3163C188.38 37.5455 188.684 37.853 188.903 38.2389C189.122 38.6181 189.226 39.045 189.216 39.5195C189.206 39.9939 189.083 40.4225 188.847 40.8051C188.611 41.1811 188.294 41.4783 187.895 41.6969C187.502 41.909 187.062 42.0096 186.574 41.9989ZM186.591 40.7758C186.838 40.7812 187.057 40.7325 187.246 40.6297C187.442 40.5203 187.593 40.3698 187.697 40.1782C187.809 39.9801 187.867 39.754 187.873 39.5001C187.878 39.2461 187.83 39.0211 187.727 38.8249C187.624 38.6288 187.481 38.4752 187.296 38.3642C187.111 38.2465 186.895 38.1849 186.648 38.1795C186.407 38.1742 186.192 38.2263 186.003 38.3358C185.813 38.4387 185.663 38.5858 185.552 38.7773C185.441 38.9687 185.382 39.1914 185.377 39.4454C185.371 39.6993 185.42 39.9277 185.522 40.1305C185.625 40.3267 185.768 40.4836 185.953 40.6013C186.138 40.7124 186.35 40.7705 186.591 40.7758ZM192.692 42.133C192.345 42.1253 192.032 42.0483 191.755 41.9018C191.477 41.7486 191.258 41.5466 191.096 41.2957C190.934 41.0447 190.85 40.7587 190.844 40.4377L190.882 38.7235C190.902 38.403 190.998 38.121 191.171 37.8774C191.35 37.6273 191.579 37.4317 191.856 37.2907C192.14 37.1498 192.455 37.0832 192.803 37.0908C193.251 37.1006 193.649 37.2196 193.999 37.4479C194.348 37.6762 194.619 37.983 194.811 38.3683C195.01 38.7538 195.104 39.1871 195.093 39.6683C195.083 40.1427 194.97 40.5682 194.754 40.9446C194.546 41.3211 194.262 41.6157 193.903 41.8285C193.544 42.0413 193.14 42.1428 192.692 42.133ZM189.964 43.9988L190.114 37.1322L191.427 37.1609L191.399 38.434L191.153 39.602L191.338 40.7795L191.267 44.0273L189.964 43.9988ZM192.488 40.915C192.729 40.9202 192.944 40.8715 193.134 40.7686C193.323 40.6591 193.47 40.5086 193.575 40.317C193.686 40.1188 193.744 39.8894 193.75 39.6288C193.756 39.3749 193.707 39.1498 193.605 38.9537C193.509 38.751 193.368 38.5941 193.184 38.4831C192.999 38.3654 192.786 38.3039 192.546 38.2986C192.312 38.2935 192.1 38.3457 191.911 38.4552C191.721 38.5581 191.571 38.7085 191.459 38.9067C191.355 39.0983 191.3 39.3211 191.294 39.575C191.289 39.8356 191.334 40.0673 191.429 40.27C191.532 40.4661 191.672 40.623 191.85 40.7405C192.035 40.8516 192.248 40.9097 192.488 40.915ZM198.175 42.253C197.687 42.2424 197.248 42.1224 196.859 41.8933C196.476 41.6576 196.172 41.3467 195.946 40.9606C195.728 40.5681 195.623 40.1345 195.634 39.66C195.644 39.1856 195.767 38.7637 196.003 38.3944C196.238 38.0185 196.555 37.7246 196.955 37.5127C197.354 37.2941 197.794 37.1901 198.275 37.2006C198.77 37.2114 199.208 37.3347 199.591 37.5704C199.98 37.7996 200.285 38.1071 200.503 38.493C200.723 38.8722 200.827 39.2991 200.816 39.7736C200.806 40.248 200.683 40.6766 200.447 41.0592C200.212 41.4352 199.894 41.7324 199.495 41.951C199.103 42.1631 198.662 42.2637 198.175 42.253ZM198.191 41.0299C198.439 41.0353 198.657 40.9866 198.846 40.8838C199.043 40.7744 199.193 40.6239 199.298 40.4323C199.409 40.2342 199.467 40.0081 199.473 39.7542C199.479 39.5002 199.43 39.2752 199.327 39.079C199.225 38.8829 199.081 38.7293 198.896 38.6183C198.711 38.5006 198.496 38.439 198.248 38.4336C198.008 38.4283 197.793 38.4804 197.603 38.5899C197.414 38.6928 197.263 38.8399 197.152 39.0314C197.041 39.2228 196.982 39.4455 196.977 39.6995C196.971 39.9534 197.02 40.1818 197.122 40.3846C197.225 40.5808 197.369 40.7377 197.553 40.8554C197.738 40.9665 197.951 41.0246 198.191 41.0299ZM203.27 42.3747C202.996 42.3687 202.726 42.326 202.461 42.2466C202.202 42.1674 201.963 42.0619 201.745 41.9301C201.528 41.7916 201.341 41.6271 201.185 41.4364L201.984 40.6616C202.147 40.8524 202.337 40.997 202.556 41.0954C202.774 41.1938 203.017 41.2459 203.285 41.2518C203.498 41.2564 203.66 41.2299 203.768 41.1721C203.883 41.1144 203.941 41.0254 203.944 40.9052C203.947 40.7715 203.889 40.6666 203.77 40.5904C203.659 40.5144 203.509 40.451 203.323 40.4001C203.137 40.3426 202.942 40.2814 202.736 40.2168C202.537 40.1455 202.345 40.0578 202.16 39.9534C201.975 39.8424 201.824 39.6953 201.708 39.5123C201.599 39.3227 201.547 39.0808 201.553 38.7868C201.56 38.4794 201.64 38.2137 201.792 37.9897C201.95 37.7658 202.171 37.5935 202.455 37.4727C202.738 37.3519 203.07 37.2956 203.451 37.304C203.852 37.3127 204.212 37.3908 204.529 37.5382C204.854 37.6857 205.12 37.9021 205.327 38.1875L204.518 38.9621C204.375 38.7784 204.211 38.6444 204.026 38.5601C203.847 38.476 203.651 38.4316 203.437 38.4269C203.243 38.4226 203.092 38.4494 202.984 38.5072C202.882 38.5652 202.83 38.6476 202.828 38.7545C202.825 38.8748 202.88 38.9696 202.992 39.039C203.111 39.1084 203.263 39.1719 203.449 39.2295C203.635 39.2804 203.828 39.3414 204.027 39.4126C204.233 39.4773 204.425 39.5684 204.603 39.686C204.787 39.8037 204.934 39.9574 205.044 40.147C205.16 40.3367 205.215 40.5786 205.209 40.8727C205.198 41.3472 205.019 41.721 204.672 41.9942C204.326 42.2607 203.858 42.3876 203.27 42.3747ZM206.063 42.3255L206.169 37.4838L207.492 37.5128L207.386 42.3545L206.063 42.3255ZM206.847 36.7164C206.634 36.7117 206.458 36.6377 206.321 36.4943C206.184 36.3442 206.117 36.1622 206.122 35.9484C206.127 35.7412 206.201 35.5656 206.344 35.4217C206.488 35.2777 206.666 35.2081 206.88 35.2128C207.101 35.2176 207.276 35.295 207.407 35.445C207.544 35.5951 207.61 35.7737 207.606 35.9809C207.601 36.1947 207.527 36.3736 207.383 36.5176C207.247 36.655 207.068 36.7213 206.847 36.7164ZM209.261 42.3956L209.411 35.539L210.724 35.5678L210.574 42.4244L209.261 42.3956ZM208.209 38.6819L208.234 37.5291L211.813 37.6075L211.788 38.7602L208.209 38.6819ZM212.445 42.4653L212.551 37.6236L213.874 37.6526L213.768 42.4943L212.445 42.4653ZM213.23 36.8562C213.016 36.8515 212.841 36.7775 212.703 36.6341C212.566 36.484 212.5 36.302 212.505 36.0882C212.509 35.881 212.583 35.7054 212.727 35.5615C212.87 35.4175 213.049 35.3479 213.263 35.3526C213.483 35.3574 213.659 35.4348 213.789 35.5848C213.927 35.7349 213.993 35.9135 213.988 36.1207C213.984 36.3345 213.909 36.5134 213.766 36.6574C213.629 36.7948 213.451 36.8611 213.23 36.8562ZM217.205 42.6699C216.717 42.6592 216.279 42.5393 215.889 42.3101C215.506 42.0744 215.202 41.7635 214.977 41.3775C214.758 40.9849 214.654 40.5514 214.664 40.0769C214.675 39.6024 214.798 39.1805 215.033 38.8113C215.269 38.4353 215.586 38.1414 215.985 37.9295C216.384 37.7109 216.825 37.6069 217.306 37.6175C217.8 37.6283 218.239 37.7516 218.621 37.9873C219.011 38.2164 219.315 38.524 219.534 38.9099C219.753 39.2891 219.857 39.7159 219.847 40.1904C219.836 40.6649 219.713 41.0935 219.478 41.4761C219.242 41.852 218.925 42.1493 218.525 42.3679C218.133 42.5799 217.693 42.6806 217.205 42.6699ZM217.222 41.4467C217.469 41.4521 217.687 41.4034 217.877 41.3006C218.073 41.1912 218.224 41.0408 218.328 40.8492C218.439 40.651 218.498 40.425 218.503 40.171C218.509 39.9171 218.46 39.692 218.358 39.4959C218.255 39.2997 218.111 39.1461 217.927 39.0351C217.742 38.9174 217.526 38.8559 217.279 38.8504C217.038 38.8452 216.823 38.8973 216.633 39.0068C216.444 39.1096 216.294 39.2568 216.182 39.4482C216.071 39.6397 216.013 39.8624 216.007 40.1163C216.002 40.3703 216.05 40.5987 216.153 40.8015C216.255 40.9976 216.399 41.1546 216.584 41.2723C216.769 41.3833 216.981 41.4415 217.222 41.4467ZM223.897 42.7162L223.958 39.9395C223.964 39.6521 223.879 39.4162 223.702 39.2318C223.526 39.0475 223.294 38.9521 223.007 38.9458C222.819 38.9417 222.651 38.9782 222.503 39.0551C222.354 39.1321 222.234 39.2432 222.144 39.3883C222.061 39.5335 222.017 39.7031 222.013 39.8969L221.507 39.625C221.516 39.2441 221.603 38.9151 221.77 38.6379C221.943 38.3542 222.175 38.1353 222.466 37.9812C222.764 37.8273 223.096 37.7543 223.464 37.7624C223.818 37.7701 224.133 37.8673 224.41 38.0539C224.687 38.2338 224.902 38.4692 225.057 38.7601C225.211 39.0442 225.284 39.3501 225.277 39.6775L225.21 42.745L223.897 42.7162ZM220.639 42.6448L220.745 37.8031L222.058 37.8319L221.952 42.6736L220.639 42.6448ZM230.489 42.9609C230.008 42.9503 229.576 42.8339 229.193 42.6116C228.817 42.3827 228.519 42.082 228.3 41.7094C228.088 41.3304 227.986 40.9136 227.996 40.4592C228.01 39.8377 228.237 39.2175 228.679 38.5987L230.696 35.8147L232.259 35.8489L230.059 38.7894L229.554 38.9188C229.631 38.7667 229.721 38.6349 229.824 38.5235C229.933 38.4122 230.072 38.3284 230.241 38.2719C230.409 38.2154 230.62 38.1899 230.874 38.1955C231.295 38.2047 231.674 38.3133 232.01 38.5212C232.347 38.7225 232.615 38.9992 232.814 39.3512C233.014 39.6966 233.109 40.0931 233.099 40.5409C233.089 41.002 232.966 41.4172 232.731 41.7864C232.496 42.1557 232.182 42.4464 231.789 42.6584C231.397 42.8704 230.963 42.9713 230.489 42.9609ZM230.516 41.7379C230.75 41.743 230.958 41.6941 231.141 41.5911C231.324 41.4815 231.471 41.3343 231.582 41.1495C231.693 40.958 231.751 40.742 231.756 40.5014C231.762 40.2608 231.713 40.0458 231.61 39.8564C231.507 39.6602 231.367 39.5067 231.189 39.3958C231.011 39.285 230.805 39.227 230.571 39.2218C230.337 39.2167 230.125 39.2689 229.936 39.3784C229.753 39.4814 229.606 39.6253 229.495 39.81C229.39 39.995 229.336 40.2077 229.33 40.4483C229.325 40.6889 229.37 40.9072 229.466 41.1032C229.569 41.2926 229.71 41.4461 229.888 41.5637C230.072 41.6747 230.282 41.7328 230.516 41.7379ZM235.845 43.0782C235.358 43.0675 234.915 42.9743 234.518 42.7984C234.121 42.6159 233.792 42.3613 233.532 42.0346L234.453 41.1623C234.583 41.3657 234.769 41.5302 235.014 41.6559C235.265 41.7818 235.541 41.848 235.842 41.8546C236.116 41.8606 236.354 41.8157 236.557 41.7198C236.767 41.6241 236.93 41.4873 237.048 41.3093C237.172 41.1249 237.237 40.909 237.242 40.6617C237.248 40.4011 237.193 40.1792 237.076 39.9962C236.967 39.8132 236.816 39.6729 236.624 39.5751C236.432 39.4773 236.216 39.4257 235.976 39.4205C235.722 39.4149 235.49 39.4433 235.282 39.5055C235.08 39.5613 234.884 39.6573 234.694 39.7935L234.793 38.9332C234.923 38.8023 235.059 38.6983 235.201 38.6212C235.343 38.5374 235.502 38.4774 235.676 38.4411C235.858 38.3982 236.069 38.3795 236.309 38.3847C236.824 38.396 237.249 38.5123 237.585 38.7336C237.928 38.9484 238.186 39.2349 238.359 39.593C238.532 39.9445 238.613 40.3307 238.604 40.7517C238.594 41.2128 238.472 41.6213 238.236 41.9772C238.001 42.3331 237.678 42.6102 237.265 42.8084C236.86 43.0001 236.387 43.0901 235.845 43.0782ZM234.694 39.7935L234.056 39.1377L234.448 35.8969L235.681 35.9239L235.248 39.214L234.694 39.7935ZM234.633 37.0844L234.448 35.8969L238.318 35.9816L238.292 37.1645L234.633 37.0844ZM241.562 43.1031L241.716 36.0561L243.08 36.0859L242.925 43.133L241.562 43.1031ZM245.983 43.2L246.137 36.1529L247.5 36.1828L247.346 43.2298L245.983 43.2ZM242.491 40.0847L242.517 38.8818L246.456 38.9681L246.43 40.171L242.491 40.0847ZM250.96 43.4093C250.452 43.3982 250.003 43.2813 249.613 43.0589C249.224 42.8297 248.916 42.5221 248.691 42.136C248.472 41.7501 248.368 41.3133 248.378 40.8254C248.389 40.3443 248.509 39.919 248.737 39.5496C248.973 39.1736 249.287 38.8796 249.679 38.6676C250.072 38.4489 250.505 38.3447 250.98 38.3551C251.448 38.3653 251.856 38.4813 252.206 38.7029C252.562 38.9179 252.837 39.2114 253.029 39.5834C253.228 39.9488 253.323 40.3621 253.313 40.8232C253.311 40.9101 253.302 41.0001 253.287 41.0934C253.278 41.1801 253.259 41.28 253.23 41.393L249.16 41.3139L249.182 40.3315L252.64 40.3973L252.1 40.7966C252.093 40.509 252.045 40.2672 251.955 40.0714C251.873 39.8756 251.746 39.7258 251.574 39.6217C251.409 39.5111 251.203 39.4531 250.956 39.4477C250.695 39.442 250.467 39.4972 250.27 39.6132C250.074 39.7226 249.92 39.883 249.809 40.0945C249.704 40.2995 249.648 40.5457 249.642 40.833C249.636 41.1271 249.683 41.3855 249.785 41.6084C249.894 41.8248 250.051 41.9953 250.256 42.1202C250.46 42.2383 250.7 42.3004 250.974 42.3064C251.221 42.3118 251.446 42.2766 251.648 42.2008C251.85 42.1183 252.027 41.9952 252.177 41.8313L252.932 42.6201C252.693 42.889 252.401 43.0898 252.057 43.2227C251.72 43.3557 251.354 43.4179 250.96 43.4093ZM256.092 43.5217C255.651 43.512 255.256 43.3931 254.906 43.1648C254.557 42.9365 254.286 42.6297 254.094 42.2444C253.902 41.8591 253.811 41.4292 253.822 40.9547C253.832 40.4735 253.942 40.0447 254.151 39.6681C254.359 39.2916 254.643 38.997 255.002 38.7842C255.361 38.5714 255.761 38.4698 256.203 38.4795C256.55 38.4871 256.859 38.5641 257.13 38.7104C257.401 38.8568 257.614 39.0587 257.769 39.3161C257.93 39.5671 258.015 39.8497 258.021 40.1641L257.983 41.9083C257.962 42.2288 257.866 42.5109 257.693 42.7545C257.528 42.9982 257.306 43.1906 257.029 43.3316C256.752 43.466 256.44 43.5293 256.092 43.5217ZM256.359 42.314C256.727 42.3221 257.027 42.2083 257.259 41.9727C257.492 41.7304 257.613 41.4155 257.621 41.0279C257.627 40.7739 257.578 40.5489 257.475 40.3527C257.379 40.1501 257.239 39.9932 257.054 39.8822C256.876 39.7646 256.664 39.7031 256.417 39.6977C256.176 39.6924 255.961 39.7446 255.771 39.8541C255.588 39.957 255.441 40.1076 255.33 40.3057C255.226 40.4973 255.171 40.7201 255.165 40.9741C255.159 41.2347 255.204 41.4664 255.3 41.669C255.403 41.8652 255.543 42.022 255.721 42.1396C255.906 42.2506 256.119 42.3088 256.359 42.314ZM257.498 43.4522L257.526 42.149L257.763 40.9708L257.578 39.8034L257.604 38.6105L258.907 38.639L258.801 43.4807L257.498 43.4522ZM261.536 43.5407L259.507 38.6522L260.951 38.6838L262.397 42.7071L261.685 42.6915L263.316 38.7356L264.71 38.7661L262.479 43.5613L261.536 43.5407ZM266.556 43.6907L264.638 38.7646L266.062 38.7958L267.323 42.5542L266.842 42.5437L268.317 38.8452L269.751 38.8766L267.488 43.7112L266.556 43.6907ZM265.17 45.6461L266.711 42.5609L267.488 43.7112L266.563 45.6766L265.17 45.6461ZM272.408 43.7788L272.562 36.7318L273.525 36.7528L276.282 41.3865L275.73 41.3744L278.677 36.8657L279.64 36.8868L279.485 43.9338L278.132 43.9042L278.235 39.1928L278.494 39.2787L276.439 42.4229L275.517 42.4027L273.602 39.1715L273.875 39.0973L273.771 43.8087L272.408 43.7788ZM283.098 44.1133C282.59 44.1021 282.141 43.9853 281.752 43.7628C281.362 43.5337 281.055 43.2261 280.829 42.84C280.61 42.4541 280.506 42.0172 280.517 41.5294C280.527 41.0482 280.647 40.6229 280.876 40.2535C281.111 39.8776 281.425 39.5836 281.818 39.3716C282.21 39.1528 282.644 39.0487 283.118 39.0591C283.586 39.0693 283.995 39.1852 284.344 39.4068C284.701 39.6219 284.975 39.9154 285.167 40.2874C285.367 40.6528 285.461 41.066 285.451 41.5272C285.449 41.614 285.441 41.7041 285.425 41.7974C285.417 41.8841 285.398 41.984 285.368 42.097L281.298 42.0179L281.32 41.0355L284.778 41.1012L284.238 41.5006C284.231 41.2129 284.183 40.9712 284.094 40.7753C284.011 40.5796 283.884 40.4297 283.712 40.3257C283.548 40.2151 283.342 40.1571 283.094 40.1517C282.834 40.146 282.605 40.2012 282.409 40.3172C282.212 40.4266 282.058 40.587 281.947 40.7985C281.842 41.0035 281.787 41.2496 281.78 41.537C281.774 41.8311 281.822 42.0895 281.924 42.3124C282.033 42.5287 282.189 42.6993 282.394 42.8241C282.599 42.9423 282.838 43.0044 283.112 43.0104C283.359 43.0158 283.584 42.9806 283.786 42.9048C283.989 42.8223 284.165 42.6991 284.316 42.5353L285.071 43.3241C284.831 43.5929 284.539 43.7938 284.195 43.9267C283.858 44.0597 283.492 44.1219 283.098 44.1133ZM286.802 44.0941L286.952 37.2375L288.265 37.2663L288.115 44.1229L286.802 44.0941ZM285.75 40.3804L285.775 39.2276L289.354 39.306L289.329 40.4588L285.75 40.3804ZM291.892 44.3059C291.451 44.2962 291.055 44.1772 290.706 43.9489C290.357 43.7207 290.086 43.4139 289.894 43.0285C289.702 42.6432 289.611 42.2133 289.621 41.7388C289.632 41.2577 289.741 40.8288 289.95 40.4523C290.159 40.0758 290.443 39.7811 290.802 39.5683C291.161 39.3556 291.561 39.254 292.002 39.2637C292.35 39.2713 292.659 39.3483 292.93 39.4946C293.201 39.6409 293.413 39.8429 293.568 40.1003C293.73 40.3512 293.814 40.6339 293.821 40.9483L293.782 42.6925C293.762 43.013 293.665 43.295 293.493 43.5386C293.327 43.7824 293.106 43.9748 292.828 44.1158C292.551 44.2501 292.239 44.3135 291.892 44.3059ZM292.159 43.0982C292.526 43.1063 292.826 42.9925 293.059 42.7569C293.291 42.5146 293.412 42.1996 293.42 41.812C293.426 41.5581 293.377 41.333 293.275 41.1369C293.179 40.9342 293.039 40.7774 292.854 40.6663C292.676 40.5488 292.463 40.4873 292.216 40.4819C291.975 40.4766 291.76 40.5287 291.571 40.6382C291.388 40.7412 291.241 40.8918 291.13 41.0899C291.025 41.2815 290.97 41.5043 290.965 41.7582C290.959 42.0189 291.004 42.2505 291.1 42.4532C291.202 42.6494 291.343 42.8062 291.521 42.9238C291.705 43.0348 291.918 43.0929 292.159 43.0982ZM293.297 44.2364L293.326 42.9332L293.562 41.755L293.377 40.5875L293.403 39.3947L294.706 39.4232L294.6 44.2649L293.297 44.2364ZM295.762 44.2904L295.921 37.0428L297.234 37.0716L297.075 44.3191L295.762 44.2904ZM299.9 44.4913C299.626 44.4853 299.357 44.4426 299.091 44.3633C298.832 44.2841 298.593 44.1786 298.376 44.0467C298.158 43.9083 297.971 43.7437 297.815 43.5531L298.614 42.7783C298.777 42.9691 298.968 43.1136 299.186 43.212C299.405 43.3104 299.648 43.3625 299.915 43.3684C300.129 43.3731 300.29 43.3465 300.398 43.2887C300.513 43.2311 300.572 43.1421 300.574 43.0218C300.577 42.8881 300.519 42.7832 300.401 42.7071C300.289 42.6311 300.14 42.5677 299.954 42.5168C299.768 42.4592 299.572 42.3981 299.366 42.3334C299.167 42.2622 298.975 42.1744 298.79 42.0701C298.605 41.959 298.455 41.812 298.338 41.6289C298.229 41.4393 298.177 41.1975 298.184 40.9034C298.19 40.596 298.27 40.3303 298.422 40.1063C298.581 39.8825 298.802 39.7101 299.085 39.5893C299.369 39.4685 299.701 39.4123 300.082 39.4206C300.483 39.4294 300.842 39.5075 301.16 39.6548C301.484 39.8023 301.75 40.0188 301.958 40.3041L301.149 41.0787C301.005 40.895 300.841 40.7611 300.656 40.6768C300.477 40.5926 300.281 40.5482 300.067 40.5435C299.873 40.5393 299.722 40.5661 299.614 40.6239C299.512 40.6818 299.46 40.7643 299.458 40.8712C299.456 40.9915 299.51 41.0863 299.622 41.1556C299.741 41.2251 299.894 41.2886 300.08 41.3461C300.266 41.397 300.458 41.4581 300.657 41.5293C300.863 41.594 301.055 41.6851 301.233 41.8026C301.418 41.9204 301.565 42.074 301.674 42.2636C301.79 42.4534 301.845 42.6953 301.839 42.9893C301.828 43.4638 301.65 43.8376 301.303 44.1109C300.956 44.3774 300.488 44.5042 299.9 44.4913Z" fill="#DA3E46"/>
<rect x="61.0165" y="22.8444" width="24.3" height="24.3" rx="12.15" transform="rotate(1.25484 61.0165 22.8444)" fill="#EF4A4A"/>
<path d="M73.2841 28.4865C73.7235 28.496 74.0955 28.7662 74.3444 29.2275L79.4163 38.3834C79.664 38.8278 79.7125 39.2917 79.4909 39.6646L79.4889 39.6665C79.268 40.0218 78.8462 40.2111 78.3295 40.1999L67.7334 39.9687C67.2193 39.9574 66.8021 39.766 66.5965 39.3832C66.3926 39.0033 66.4436 38.5423 66.7123 38.1061L72.1925 29.1806C72.4617 28.7296 72.8599 28.4774 73.2841 28.4865ZM73.2813 29.2874C73.1841 29.2853 73.0391 29.3675 72.8965 29.5984L67.4016 38.5236L67.3996 38.5265C67.2771 38.7134 67.2559 38.8639 67.2875 38.9597L67.3033 38.9971L67.3052 39.0001C67.324 39.0358 67.3677 39.0772 67.4454 39.1106C67.5221 39.1435 67.6255 39.1653 67.7509 39.1681L78.347 39.3993C78.6079 39.405 78.7434 39.3385 78.8006 39.2481C78.827 39.2062 78.8397 39.1451 78.8281 39.0611C78.8165 38.9771 78.7813 38.8776 78.7231 38.7687L78.7232 38.7677L73.6522 29.6139L73.6512 29.6129C73.5949 29.5075 73.5273 29.4242 73.4592 29.3684C73.3899 29.3117 73.3272 29.2884 73.2813 29.2874ZM73.1082 36.548C73.415 36.5547 73.6478 36.7978 73.6411 37.1047C73.6343 37.4115 73.3912 37.6433 73.0844 37.6366C72.7778 37.6297 72.5458 37.3876 72.5525 37.0809C72.5591 36.7742 72.8015 36.5415 73.1082 36.548ZM73.1993 32.3732C73.5061 32.3799 73.7389 32.623 73.7322 32.9299L73.6725 35.6646C73.6658 35.9715 73.4227 36.2042 73.1158 36.1975C72.8091 36.1906 72.5772 35.9476 72.5839 35.6408L72.6436 32.9061C72.6503 32.5994 72.8926 32.3667 73.1993 32.3732Z" fill="white" stroke="white" stroke-width="0.225"/>
</g>
<defs>
<filter id="filter0_dd_345_724" x="-0.149986" y="-0.150024" width="320.642" height="107.664" filterUnits="userSpaceOnUse" color-interpolation-filters="sRGB">
<feFlood flood-opacity="0" result="BackgroundImageFix"/>
<feColorMatrix in="SourceAlpha" type="matrix" values="0 0 0 0 0 0 0 0 0 0 0 0 0 0 0 0 0 0 127 0" result="hardAlpha"/>
<feMorphology radius="4" operator="erode" in="SourceAlpha" result="effect1_dropShadow_345_724"/>
<feOffset dy="4"/>
<feGaussianBlur stdDeviation="2"/>
<feComposite in2="hardAlpha" operator="out"/>
<feColorMatrix type="matrix" values="0 0 0 0 0.0470588 0 0 0 0 0.0470588 0 0 0 0 0.0509804 0 0 0 0.05 0"/>
<feBlend mode="normal" in2="BackgroundImageFix" result="effect1_dropShadow_345_724"/>
<feColorMatrix in="SourceAlpha" type="matrix" values="0 0 0 0 0 0 0 0 0 0 0 0 0 0 0 0 0 0 127 0" result="hardAlpha"/>
<feMorphology radius="4" operator="erode" in="SourceAlpha" result="effect2_dropShadow_345_724"/>
<feOffset dx="-23.4" dy="16"/>
<feGaussianBlur stdDeviation="16"/>
<feComposite in2="hardAlpha" operator="out"/>
<feColorMatrix type="matrix" values="0 0 0 0 0.0470588 0 0 0 0 0.0470588 0 0 0 0 0.0509804 0 0 0 0.1 0"/>
<feBlend mode="normal" in2="effect1_dropShadow_345_724" result="effect2_dropShadow_345_724"/>
<feBlend mode="normal" in="BackgroundImageFix" in2="effect2_dropShadow_345_724" result="BackgroundImageFix"/>
<feBlend mode="normal" in="SourceGraphic" in2="BackgroundImageFix" result="shape"/>
</filter>
</defs>
</svg>
