<svg width="169" height="29" viewBox="0 0 169 29" fill="none" xmlns="http://www.w3.org/2000/svg">
<path d="M163.985 11.8311L158.966 16.9751L156.12 19.8913C153.734 22.3367 149.85 22.3367 147.464 19.8913L145.87 18.2571L140.851 23.4011L142.445 25.0354C145.024 27.6786 148.407 28.9963 151.789 28.9963C155.171 28.9963 158.557 27.6746 161.136 25.0354L169 16.9751L163.981 11.8311H163.985Z" fill="#EF4A4A"/>
<path d="M144.619 16.9754L147.464 14.0591C148.619 12.876 150.159 12.2231 151.792 12.2231C153.426 12.2231 154.966 12.876 156.12 14.0591L157.719 15.6973L162.738 10.5533L161.14 8.91511C158.642 6.35497 155.325 4.94629 151.792 4.94629C148.26 4.94629 144.943 6.35497 142.449 8.91511L134.585 16.9754L139.608 22.1234L144.627 16.9793L144.619 16.9754Z" fill="#194BFD"/>
<path d="M8.64053 22.3769H10.8837V26.4249H7.90311C6.00359 26.4249 4.54419 25.9777 3.51721 25.0874C2.49023 24.1932 1.97674 22.7212 1.97674 20.6596V11.3568H0V7.41178H1.97674V2.71094H6.69854V7.41178H10.8528V11.3568H6.69854V20.6596C6.69854 21.2769 6.84524 21.7201 7.1348 21.9812C7.42436 22.2463 7.92628 22.3769 8.64053 22.3769Z" fill="#194BFD"/>
<path d="M17.648 7.41561V10.779C18.8989 8.3534 20.7057 7.14258 23.0724 7.14258V12.0848H21.8987C20.4934 12.0848 19.4317 12.4449 18.7174 13.165C18.0032 13.8852 17.6441 15.1277 17.6441 16.8885V26.4287H12.9223V7.41561H17.6441H17.648Z" fill="#194BFD"/>
<path d="M37.5733 7.41509H42.2951V26.4282H37.5733V23.5436C36.3881 25.6249 34.4576 26.6656 31.7821 26.6656C29.6818 26.6656 27.9637 25.9494 26.624 24.5209C25.2843 23.0925 24.6164 21.1061 24.6164 18.5657V7.41113H29.3034V17.8772C29.3034 19.365 29.6702 20.5086 30.4076 21.3079C31.1451 22.1072 32.1489 22.5108 33.4229 22.5108C34.697 22.5108 35.7047 22.1112 36.4537 21.3079C37.2027 20.5086 37.5772 19.365 37.5772 17.8772V7.41113L37.5733 7.41509Z" fill="#194BFD"/>
<path d="M53.511 26.7018C50.8084 26.7018 48.6116 25.8035 46.9128 24.0071C45.2141 22.2106 44.3685 19.8365 44.3685 16.8846C44.3685 13.9327 45.2218 11.5704 46.9321 9.79773C48.6386 8.02503 50.8509 7.13867 53.5612 7.13867C56.2715 7.13867 58.4992 8.00129 60.2404 9.73047C61.9816 11.4597 62.8542 13.7626 62.8542 16.6472C62.8542 17.312 62.8079 17.9292 62.7191 18.499H49.1907C49.3027 19.7336 49.7467 20.7308 50.5304 21.4865C51.3103 22.2423 52.3064 22.6182 53.511 22.6182C55.1402 22.6182 56.3448 21.9337 57.1286 20.5606H62.2171C61.6805 22.3689 60.6419 23.8449 59.1015 24.9884C57.561 26.132 55.6962 26.7057 53.5071 26.7057L53.511 26.7018ZM56.6074 12.3539C55.7696 11.5981 54.758 11.2222 53.5766 11.2222C52.3952 11.2222 51.4068 11.5981 50.6115 12.3539C49.82 13.1097 49.3452 14.1148 49.1869 15.3731H57.9625C57.8969 14.1148 57.4452 13.1097 56.6074 12.3539Z" fill="#194BFD"/>
<path d="M62.7539 7.51855H66.8387L72.0624 22.9269L77.2861 7.51855H81.4056L74.375 26.4288H69.7536L62.7539 7.51855Z" fill="#194BFD"/>
<path d="M86.9343 2.50475C86.9343 3.21304 86.6988 3.81054 86.2316 4.28933C85.7645 4.76812 85.1892 5.00948 84.5058 5.00948C83.8225 5.00948 83.2511 4.76812 82.78 4.28933C82.3129 3.81054 82.0774 3.21304 82.0774 2.50475C82.0774 1.79646 82.3129 1.19895 82.78 0.720165C83.2472 0.241376 83.8225 0 84.5058 0C85.1892 0 85.7606 0.241376 86.2316 0.720165C86.7026 1.19895 86.9343 1.79646 86.9343 2.50475ZM82.5793 26.4284V7.51818H86.3976V26.4284H82.5793Z" fill="#194BFD"/>
<path d="M97.5476 26.7365C94.8682 26.7365 92.6907 25.8422 91.019 24.0576C89.3473 22.2731 88.5095 19.9028 88.5095 16.9549C88.5095 14.007 89.3588 11.6408 91.0537 9.86805C92.7486 8.09534 94.9416 7.20898 97.6326 7.20898C100.324 7.20898 102.505 8.05973 104.181 9.76517C105.856 11.4706 106.694 13.6944 106.694 16.4405C106.694 17.1053 106.648 17.7226 106.559 18.2924H92.4282C92.517 19.8712 93.0343 21.1255 93.9841 22.0515C94.9339 22.9774 96.123 23.4403 97.5515 23.4403C99.6286 23.4403 101.088 22.558 101.937 20.7971H106.057C105.497 22.5382 104.482 23.9587 103.011 25.0706C101.536 26.1825 99.7174 26.7365 97.5515 26.7365H97.5476ZM101.196 11.894C100.215 10.9681 99.0186 10.5051 97.6133 10.5051C96.208 10.5051 95.0304 10.9681 94.0806 11.894C93.1309 12.8199 92.5903 14.0624 92.4552 15.6175H102.702C102.679 14.0624 102.177 12.8199 101.196 11.894Z" fill="#194BFD"/>
<path d="M129.828 7.51855H133.577L127.851 26.4288H123.832L120.114 12.4608L116.396 26.4288H112.377L106.617 7.51855H110.501L114.35 22.7211L118.269 7.51855H122.253L126.002 22.6538L129.82 7.51855H129.828Z" fill="#194BFD"/>
</svg>
