<svg width="17" height="17" viewBox="0 0 17 17" fill="none" xmlns="http://www.w3.org/2000/svg">
<path fill-rule="evenodd" clip-rule="evenodd" d="M16.2803 0.219691C16.4841 0.423419 16.5531 0.725843 16.4579 0.997784L11.2079 15.9978C11.1063 16.288 10.8378 16.4869 10.5306 16.4994C10.2233 16.5119 9.93954 16.3356 9.81465 16.0546L6.9318 9.56822L0.4454 6.68538C0.16439 6.56049 -0.0119081 6.27671 0.000627214 5.96945C0.0131626 5.66219 0.211991 5.39371 0.502241 5.29213L15.5022 0.0421271C15.7742 -0.0530519 16.0766 0.0159624 16.2803 0.219691ZM8.39456 9.16612L10.4171 13.7167L13.9564 3.60429L8.39456 9.16612ZM12.8957 2.54362L2.78331 6.08297L7.3339 8.10546L12.8957 2.54362Z" fill="white"/>
</svg>
