<svg width="219" height="41" viewBox="0 0 219 41" fill="none" xmlns="http://www.w3.org/2000/svg">
<path d="M212.074 16.5287L205.583 23.7151L201.903 27.7892C198.818 31.2055 193.795 31.2055 190.709 27.7892L188.647 25.5061L182.156 32.6925L184.218 34.9755C187.553 38.6682 191.927 40.5091 196.301 40.5091C200.675 40.5091 205.054 38.6627 208.389 34.9755L218.56 23.7151L212.069 16.5287H212.074Z" fill="#EF4A4A"/>
<path d="M187.029 23.715L190.709 19.6409C192.202 17.988 194.194 17.0759 196.306 17.0759C198.418 17.0759 200.41 17.988 201.903 19.6409L203.97 21.9295L210.461 14.7431L208.394 12.4545C205.164 8.87792 200.875 6.90994 196.306 6.90994C191.737 6.90994 187.448 8.87792 184.223 12.4545L174.052 23.715L180.548 30.9069L187.039 23.7205L187.029 23.715Z" fill="#194BFD"/>
<path d="M11.1744 31.261H14.0753V36.9162H10.2207C7.76415 36.9162 5.87678 36.2915 4.54863 35.0477C3.22049 33.7984 2.55642 31.742 2.55642 28.8619V15.8656H0V10.3542H2.55642V3.78698H8.66289V10.3542H14.0354V15.8656H8.66289V28.8619C8.66289 29.7243 8.85261 30.3434 9.22709 30.7082C9.60157 31.0786 10.2507 31.261 11.1744 31.261Z" fill="white"/>
<path d="M22.8233 10.3594V15.0582C24.4411 11.6695 26.7778 9.97794 29.8385 9.97794V16.8824H28.3206C26.5032 16.8824 25.1301 17.3854 24.2064 18.3915C23.2827 19.3976 22.8183 21.1334 22.8183 23.5934V36.9213H16.7119V10.3594H22.8183H22.8233Z" fill="white"/>
<path d="M48.5915 10.3593H54.698V36.9212H48.5915V32.8913C47.0587 35.799 44.5622 37.2529 41.102 37.2529C38.3858 37.2529 36.1639 36.2523 34.4313 34.2567C32.6987 32.2611 31.8349 29.4861 31.8349 25.9371V10.3538H37.8965V24.9753C37.8965 27.0538 38.3708 28.6514 39.3245 29.768C40.2781 30.8847 41.5763 31.4485 43.224 31.4485C44.8717 31.4485 46.1749 30.8902 47.1435 29.768C48.1122 28.6514 48.5965 27.0538 48.5965 24.9753V10.3538L48.5915 10.3593Z" fill="white"/>
<path d="M69.2033 37.3035C65.7082 37.3035 62.8672 36.0486 60.6702 33.5389C58.4733 31.0292 57.3798 27.7124 57.3798 23.5886C57.3798 19.4647 58.4833 16.1645 60.6952 13.6879C62.9021 11.2114 65.7631 9.97314 69.2682 9.97314C72.7733 9.97314 75.6543 11.1783 77.9061 13.594C80.158 16.0097 81.2864 19.227 81.2864 23.2569C81.2864 24.1856 81.2265 25.0479 81.1117 25.844H63.6161C63.7609 27.5687 64.3351 28.9618 65.3487 30.0176C66.3573 31.0734 67.6455 31.5986 69.2033 31.5986C71.3103 31.5986 72.8682 30.6423 73.8817 28.7241H80.4626C79.7685 31.2503 78.4254 33.3123 76.4332 34.9099C74.441 36.5075 72.0293 37.309 69.1983 37.309L69.2033 37.3035ZM73.2077 17.259C72.1242 16.2032 70.8161 15.678 69.2882 15.678C67.7603 15.678 66.4821 16.2032 65.4535 17.259C64.43 18.3149 63.8158 19.719 63.6111 21.4769H74.9603C74.8754 19.719 74.2912 18.3149 73.2077 17.259Z" fill="white"/>
<path d="M81.1566 10.5033H86.4392L93.1948 32.0292L99.9503 10.5033H105.278L96.1856 36.9215H90.2089L81.1566 10.5033Z" fill="white"/>
<path d="M112.428 3.49922C112.428 4.48873 112.123 5.32346 111.519 5.99234C110.915 6.66123 110.171 6.99842 109.287 6.99842C108.403 6.99842 107.664 6.66123 107.055 5.99234C106.451 5.32346 106.146 4.48873 106.146 3.49922C106.146 2.50971 106.451 1.67498 107.055 1.0061C107.659 0.337211 108.403 0 109.287 0C110.171 0 110.91 0.337211 111.519 1.0061C112.128 1.67498 112.428 2.50971 112.428 3.49922ZM106.795 36.9214V10.5032H111.734V36.9214H106.795Z" fill="white"/>
<path d="M126.153 37.3524C122.688 37.3524 119.872 36.1031 117.71 33.61C115.548 31.1168 114.465 27.8056 114.465 23.6872C114.465 19.5689 115.563 16.2632 117.755 13.7866C119.947 11.3101 122.783 10.0718 126.263 10.0718C129.743 10.0718 132.564 11.2604 134.731 13.6429C136.898 16.0255 137.982 19.1322 137.982 22.9686C137.982 23.8973 137.922 24.7597 137.807 25.5557H119.533C119.648 27.7614 120.317 29.5137 121.545 30.8073C122.773 32.1008 124.311 32.7476 126.158 32.7476C128.845 32.7476 130.732 31.5149 131.83 29.0549H137.158C136.434 31.4872 135.121 33.4718 133.219 35.0251C131.311 36.5785 128.959 37.3524 126.158 37.3524H126.153ZM130.872 16.617C129.604 15.3234 128.056 14.6766 126.238 14.6766C124.421 14.6766 122.898 15.3234 121.67 16.617C120.441 17.9105 119.742 19.6463 119.568 21.8188H132.819C132.789 19.6463 132.14 17.9105 130.872 16.617Z" fill="white"/>
<path d="M167.9 10.5033H172.748L165.344 36.9215H160.146L155.338 17.4077L150.529 36.9215H145.332L137.882 10.5033H142.905L147.883 31.7418L152.951 10.5033H158.104L162.952 31.6478L167.89 10.5033H167.9Z" fill="white"/>
</svg>
